<svg width="18" height="10" viewBox="0 0 18 10" fill="none" xmlns="http://www.w3.org/2000/svg">
<path d="M17.0306 1.53068L9.53061 9.03068C9.46096 9.10041 9.37824 9.15573 9.2872 9.19347C9.19615 9.23121 9.09855 9.25064 8.99999 9.25064C8.90143 9.25064 8.80383 9.23121 8.71278 9.19347C8.62174 9.15573 8.53902 9.10041 8.46936 9.03068L0.969365 1.53068C0.828634 1.38995 0.749573 1.19907 0.749573 1.00005C0.749573 0.801028 0.828634 0.610156 0.969365 0.469425C1.1101 0.328695 1.30097 0.249634 1.49999 0.249634C1.69901 0.249634 1.88988 0.328695 2.03061 0.469425L8.99999 7.43974L15.9694 0.469425C16.039 0.399743 16.1218 0.344468 16.2128 0.306756C16.3039 0.269044 16.4014 0.249634 16.5 0.249634C16.5985 0.249634 16.6961 0.269044 16.7872 0.306756C16.8782 0.344468 16.9609 0.399743 17.0306 0.469425C17.1003 0.539108 17.1556 0.621834 17.1933 0.712878C17.231 0.803923 17.2504 0.901505 17.2504 1.00005C17.2504 1.0986 17.231 1.19618 17.1933 1.28722C17.1556 1.37827 17.1003 1.46099 17.0306 1.53068Z" fill="black"/>
</svg>
