<svg width="24" height="25" viewBox="0 0 24 25" fill="none" xmlns="http://www.w3.org/2000/svg">
<path d="M18.5306 7.10074L7.81031 17.8201H15.75C15.9489 17.8201 16.1397 17.8991 16.2803 18.0398C16.421 18.1804 16.5 18.3712 16.5 18.5701C16.5 18.769 16.421 18.9598 16.2803 19.1005C16.1397 19.2411 15.9489 19.3201 15.75 19.3201H6C5.80109 19.3201 5.61032 19.2411 5.46967 19.1005C5.32902 18.9598 5.25 18.769 5.25 18.5701V8.82012C5.25 8.62121 5.32902 8.43044 5.46967 8.28979C5.61032 8.14914 5.80109 8.07012 6 8.07012C6.19891 8.07012 6.38968 8.14914 6.53033 8.28979C6.67098 8.43044 6.75 8.62121 6.75 8.82012V16.7598L17.4694 6.03949C17.5391 5.96981 17.6218 5.91454 17.7128 5.87682C17.8039 5.83911 17.9015 5.8197 18 5.8197C18.0985 5.8197 18.1961 5.83911 18.2872 5.87682C18.3782 5.91454 18.4609 5.96981 18.5306 6.03949C18.6003 6.10918 18.6556 6.1919 18.6933 6.28295C18.731 6.37399 18.7504 6.47157 18.7504 6.57012C18.7504 6.66867 18.731 6.76625 18.6933 6.85729C18.6556 6.94834 18.6003 7.03106 18.5306 7.10074Z" fill="black"/>
</svg>
