<svg width="25" height="24" viewBox="0 0 25 24" fill="none" xmlns="http://www.w3.org/2000/svg">
<path d="M21.28 9.75C21.28 9.94891 21.201 10.1397 21.0604 10.2803C20.9197 10.421 20.7289 10.5 20.53 10.5C20.3311 10.5 20.1404 10.421 19.9997 10.2803C19.859 10.1397 19.78 9.94891 19.78 9.75V5.56125L13.5616 11.7806C13.4209 11.9214 13.23 12.0004 13.031 12.0004C12.8319 12.0004 12.6411 11.9214 12.5003 11.7806C12.3596 11.6399 12.2806 11.449 12.2806 11.25C12.2806 11.051 12.3596 10.8601 12.5003 10.7194L18.7188 4.5H14.53C14.3311 4.5 14.1404 4.42098 13.9997 4.28033C13.859 4.13968 13.78 3.94891 13.78 3.75C13.78 3.55109 13.859 3.36032 13.9997 3.21967C14.1404 3.07902 14.3311 3 14.53 3H20.53C20.7289 3 20.9197 3.07902 21.0604 3.21967C21.201 3.36032 21.28 3.55109 21.28 3.75V9.75ZM17.53 12C17.3311 12 17.1404 12.079 16.9997 12.2197C16.859 12.3603 16.78 12.5511 16.78 12.75V19.5H4.78003V7.5H11.53C11.7289 7.5 11.9197 7.42098 12.0604 7.28033C12.201 7.13968 12.28 6.94891 12.28 6.75C12.28 6.55109 12.201 6.36032 12.0604 6.21967C11.9197 6.07902 11.7289 6 11.53 6H4.78003C4.3822 6 4.00067 6.15804 3.71937 6.43934C3.43806 6.72064 3.28003 7.10218 3.28003 7.5V19.5C3.28003 19.8978 3.43806 20.2794 3.71937 20.5607C4.00067 20.842 4.3822 21 4.78003 21H16.78C17.1779 21 17.5594 20.842 17.8407 20.5607C18.122 20.2794 18.28 19.8978 18.28 19.5V12.75C18.28 12.5511 18.201 12.3603 18.0604 12.2197C17.9197 12.079 17.7289 12 17.53 12Z" fill="black"/>
</svg>
