<svg width="24" height="25" viewBox="0 0 24 25" fill="none" xmlns="http://www.w3.org/2000/svg">
<path d="M18.75 6.57007V16.3201C18.75 16.519 18.671 16.7097 18.5303 16.8504C18.3897 16.9911 18.1989 17.0701 18 17.0701C17.8011 17.0701 17.6103 16.9911 17.4697 16.8504C17.329 16.7097 17.25 16.519 17.25 16.3201V8.38038L6.53063 19.1007C6.3899 19.2414 6.19903 19.3205 6.00001 19.3205C5.80098 19.3205 5.61011 19.2414 5.46938 19.1007C5.32865 18.96 5.24959 18.7691 5.24959 18.5701C5.24959 18.371 5.32865 18.1802 5.46938 18.0394L16.1897 7.32007H8.25001C8.05109 7.32007 7.86033 7.24105 7.71968 7.1004C7.57902 6.95975 7.50001 6.76898 7.50001 6.57007C7.50001 6.37116 7.57902 6.18039 7.71968 6.03974C7.86033 5.89909 8.05109 5.82007 8.25001 5.82007H18C18.1989 5.82007 18.3897 5.89909 18.5303 6.03974C18.671 6.18039 18.75 6.37116 18.75 6.57007Z" fill="black"/>
</svg>
