<svg width="25" height="24" viewBox="0 0 25 24" fill="none" xmlns="http://www.w3.org/2000/svg">
<path d="M21.0738 16.4944C20.5535 15.5981 19.78 13.0622 19.78 9.75C19.78 7.76088 18.9899 5.85322 17.5833 4.4467C16.1768 3.04018 14.2692 2.25 12.28 2.25C10.2909 2.25 8.38326 3.04018 6.97674 4.4467C5.57022 5.85322 4.78004 7.76088 4.78004 9.75C4.78004 13.0631 4.00567 15.5981 3.48535 16.4944C3.35248 16.7222 3.28204 16.9811 3.28114 17.2449C3.28023 17.5086 3.34889 17.768 3.4802 17.9967C3.6115 18.2255 3.8008 18.4156 4.02902 18.5478C4.25723 18.6801 4.51628 18.7498 4.78004 18.75H8.60598C8.77902 19.5967 9.23919 20.3577 9.90867 20.9042C10.5781 21.4507 11.4158 21.7492 12.28 21.7492C13.1443 21.7492 13.9819 21.4507 14.6514 20.9042C15.3209 20.3577 15.7811 19.5967 15.9541 18.75H19.78C20.0437 18.7496 20.3027 18.6798 20.5307 18.5475C20.7588 18.4151 20.948 18.225 21.0792 17.9963C21.2104 17.7676 21.279 17.5083 21.278 17.2446C21.2771 16.9809 21.2066 16.7222 21.0738 16.4944ZM12.28 20.25C11.8149 20.2499 11.3612 20.1055 10.9814 19.8369C10.6016 19.5683 10.3145 19.1886 10.1594 18.75H14.4007C14.2456 19.1886 13.9584 19.5683 13.5787 19.8369C13.1989 20.1055 12.7452 20.2499 12.28 20.25ZM4.78004 17.25C5.50192 16.0087 6.28004 13.1325 6.28004 9.75C6.28004 8.1587 6.91218 6.63258 8.0374 5.50736C9.16262 4.38214 10.6887 3.75 12.28 3.75C13.8713 3.75 15.3975 4.38214 16.5227 5.50736C17.6479 6.63258 18.28 8.1587 18.28 9.75C18.28 13.1297 19.0563 16.0059 19.78 17.25H4.78004Z" fill="black"/>
</svg>
