<svg width="24" height="25" viewBox="0 0 24 25" fill="none" xmlns="http://www.w3.org/2000/svg">
<path d="M19.5 3.57007H17.25V2.82007C17.25 2.62116 17.171 2.43039 17.0303 2.28974C16.8897 2.14909 16.6989 2.07007 16.5 2.07007C16.3011 2.07007 16.1103 2.14909 15.9697 2.28974C15.829 2.43039 15.75 2.62116 15.75 2.82007V3.57007H8.25V2.82007C8.25 2.62116 8.17098 2.43039 8.03033 2.28974C7.88968 2.14909 7.69891 2.07007 7.5 2.07007C7.30109 2.07007 7.11032 2.14909 6.96967 2.28974C6.82902 2.43039 6.75 2.62116 6.75 2.82007V3.57007H4.5C4.10218 3.57007 3.72064 3.7281 3.43934 4.00941C3.15804 4.29071 3 4.67224 3 5.07007V20.0701C3 20.4679 3.15804 20.8494 3.43934 21.1307C3.72064 21.412 4.10218 21.5701 4.5 21.5701H19.5C19.8978 21.5701 20.2794 21.412 20.5607 21.1307C20.842 20.8494 21 20.4679 21 20.0701V5.07007C21 4.67224 20.842 4.29071 20.5607 4.00941C20.2794 3.7281 19.8978 3.57007 19.5 3.57007ZM6.75 5.07007V5.82007C6.75 6.01898 6.82902 6.20975 6.96967 6.3504C7.11032 6.49105 7.30109 6.57007 7.5 6.57007C7.69891 6.57007 7.88968 6.49105 8.03033 6.3504C8.17098 6.20975 8.25 6.01898 8.25 5.82007V5.07007H15.75V5.82007C15.75 6.01898 15.829 6.20975 15.9697 6.3504C16.1103 6.49105 16.3011 6.57007 16.5 6.57007C16.6989 6.57007 16.8897 6.49105 17.0303 6.3504C17.171 6.20975 17.25 6.01898 17.25 5.82007V5.07007H19.5V8.07007H4.5V5.07007H6.75ZM19.5 20.0701H4.5V9.57007H19.5V20.0701Z" fill="black"/>
</svg>
