<?xml version="1.0" encoding="UTF-8"?>
<svg id="Layer_1" data-name="Layer 1" xmlns="http://www.w3.org/2000/svg" viewBox="0 0 512 509.82">
  <path d="M36.86,0h6.06c9.44.88,18.63,4.88,25.31,11.67,9.51,9.32,13.73,23.6,10.87,36.6-3.16,15.96-16.97,28.91-33.04,31.26-.13,16.98-.04,33.97-.05,50.96,27.29-37.78,65.6-67.27,108.68-84.86,40.03-16.73,84.2-22.44,127.3-18.56,72.2,6.45,141.52,44.37,184,103.42.02-16.97.02-33.94-.01-50.91-9.96-1.67-19.32-6.97-25.51-15.01-8.51-10.73-10.84-25.95-5.88-38.73,5.27-14.48,19.55-24.92,34.89-25.84h5.52c8.95.86,17.68,4.5,24.25,10.7,7.51,6.9,11.99,16.77,12.75,26.9v5.09c-.91,9.75-5.11,19.25-12.26,26.02-5.89,5.79-13.63,9.43-21.72,10.86.09,23.07-.28,46.18.18,69.23,4.1,7.92,8.64,15.66,12.18,23.88,13.27,29.21,20.37,61.05,21.62,93.07v103.32c-.91,15.06-5.89,29.92-14.79,42.15-15.04,21.33-41.17,33.91-67.2,32.79-40.06-.03-80.11.01-120.17-.02-20.56,27.75-50.95,46.36-82.52,59.2-5.07,1.94-10.13,3.96-15.3,5.63-8.86,2.83-19.14-.5-24.82-7.83-5.81-6.86-6.71-17.22-2.36-25.06,5.22-9.67,7.46-20.87,6.28-31.79-32.39-.32-64.79-.05-97.18-.14-9.68-.14-19.44.56-29.01-1.22-20.48-3.53-39.26-15.65-51.01-32.78-8.36-11.93-13.01-26.25-13.92-40.76v-103.37c1.41-39.27,11.96-78.28,31.41-112.48,1.29-2.25,2.94-4.56,2.62-7.31-.08-22.17.02-44.35-.05-66.52-10.2-1.71-19.77-7.22-25.93-15.58C3.15,57.56.42,49.63,0,41.59v-3.86c.69-9.69,4.75-19.15,11.7-26C18.34,4.95,27.47.96,36.86,0ZM246.22,88.31c-58.81,3.44-115.33,34.46-150.03,82.03-19.58,26.79-31.61,59.39-32.22,92.7.07,28.99-.01,57.98.05,86.96,0,5.69,1.62,11.37,4.72,16.15,5.52,8.8,15.85,14.2,26.22,13.85,107.69-.01,215.38.03,323.07-.02,10.76.09,21.23-6.15,26.29-15.64,2.61-4.67,3.75-10.05,3.68-15.38.01-28.67-.03-57.34.02-86.01-.56-30.21-10.39-59.92-26.81-85.19-37.4-57.48-106.34-93.29-174.99-89.45Z"/>
  <path d="M149.45,180.61c11.02-2.07,22.91,1.31,31.06,9.05,10.64,9.65,14.38,25.93,9.06,39.27-4.63,12.36-16.55,21.57-29.71,22.84-12.85,1.52-26.15-4.61-33.43-15.27-7.15-10.12-8.41-24-3.26-35.25,4.71-10.61,14.84-18.6,26.28-20.64Z"/>
  <path d="M349.52,180.6c15.58-3.12,32.43,5.54,39,20,4.82,10.04,4.56,22.32-.68,32.15-5.33,10.27-15.88,17.62-27.39,18.95-13.47,1.84-27.54-4.81-34.75-16.31-6.67-10.2-7.52-23.85-2.22-34.81,4.83-10.31,14.82-18,26.04-19.98Z"/>
  <path d="M196.4,268.57c3.14-.77,6.41-.56,9.62-.58,35.01.03,70.01-.02,105.02.02,7.98-.15,15.54,5.62,17.51,13.35,1.73,5.95-.58,11.96-2.4,17.58-6.21,17.66-19.39,32.72-36.05,41.24-15.58,8.12-34.11,10.36-51.18,6.24-24.2-5.48-44.92-23.99-53.07-47.43-1.63-5.16-3.76-10.54-2.76-16.04,1.12-6.85,6.58-12.71,13.31-14.38ZM194.94,287.02c1.79,8.98,5.83,17.46,11.38,24.73,14.39-12.5,33.6-19.21,52.64-18.37,17.07.57,33.81,7.19,46.73,18.36,5.51-7.28,9.55-15.74,11.36-24.7.95-3.58-2.32-7.3-5.96-7.01-36.74-.05-73.49-.05-110.23,0-3.62-.27-6.84,3.43-5.92,6.99Z"/>
</svg>