<svg width="25" height="24" viewBox="0 0 25 24" fill="none" xmlns="http://www.w3.org/2000/svg">
<path d="M12.9441 2.25C11.0157 2.25 9.13067 2.82183 7.52729 3.89317C5.92391 4.96451 4.67423 6.48726 3.93627 8.26884C3.19832 10.0504 3.00523 12.0108 3.38144 13.9021C3.75765 15.7934 4.68624 17.5307 6.04981 18.8943C7.41337 20.2579 9.15065 21.1865 11.042 21.5627C12.9333 21.9389 14.8937 21.7458 16.6753 21.0078C18.4568 20.2699 19.9796 19.0202 21.0509 17.4168C22.1223 15.8134 22.6941 13.9284 22.6941 12C22.6914 9.41498 21.6633 6.93661 19.8354 5.10872C18.0075 3.28084 15.5291 2.25273 12.9441 2.25ZM17.2247 10.2806L11.9747 15.5306C11.9051 15.6004 11.8223 15.6557 11.7313 15.6934C11.6403 15.7312 11.5427 15.7506 11.4441 15.7506C11.3455 15.7506 11.2479 15.7312 11.1569 15.6934C11.0658 15.6557 10.9831 15.6004 10.9135 15.5306L8.66347 13.2806C8.52274 13.1399 8.44368 12.949 8.44368 12.75C8.44368 12.551 8.52274 12.3601 8.66347 12.2194C8.8042 12.0786 8.99507 11.9996 9.1941 11.9996C9.39312 11.9996 9.58399 12.0786 9.72472 12.2194L11.4441 13.9397L16.1635 9.21937C16.2332 9.14969 16.3159 9.09442 16.4069 9.0567C16.498 9.01899 16.5955 8.99958 16.6941 8.99958C16.7926 8.99958 16.8902 9.01899 16.9813 9.0567C17.0723 9.09442 17.155 9.14969 17.2247 9.21937C17.2944 9.28906 17.3497 9.37178 17.3874 9.46283C17.4251 9.55387 17.4445 9.65145 17.4445 9.75C17.4445 9.84855 17.4251 9.94613 17.3874 10.0372C17.3497 10.1282 17.2944 10.2109 17.2247 10.2806Z" fill="black"/>
</svg>
