<svg width="24" height="24" viewBox="0 0 24 24" fill="none" xmlns="http://www.w3.org/2000/svg">
<path d="M21.5306 7.28068L9.53061 19.2807C9.46096 19.3504 9.37824 19.4057 9.2872 19.4435C9.19615 19.4812 9.09855 19.5006 8.99999 19.5006C8.90143 19.5006 8.80383 19.4812 8.71278 19.4435C8.62174 19.4057 8.53902 19.3504 8.46936 19.2807L3.21936 14.0307C3.07863 13.8899 2.99957 13.6991 2.99957 13.5001C2.99957 13.301 3.07863 13.1102 3.21936 12.9694C3.3601 12.8287 3.55097 12.7496 3.74999 12.7496C3.94901 12.7496 4.13988 12.8287 4.28061 12.9694L8.99999 17.6897L20.4694 6.21943C20.6101 6.07869 20.801 5.99963 21 5.99963C21.199 5.99963 21.3899 6.07869 21.5306 6.21943C21.6713 6.36016 21.7504 6.55103 21.7504 6.75005C21.7504 6.94907 21.6713 7.13995 21.5306 7.28068Z" fill="black"/>
</svg>
