<?xml version="1.0" encoding="UTF-8"?>
<svg id="Layer_1" data-name="Layer 1" xmlns="http://www.w3.org/2000/svg" viewBox="0 0 512 512">
  <path d="M119.18,0h16.31c3.55.67,7.13,2.2,9.26,5.26,3.25,4.18,2.54,9.8,2.67,14.75-.09,5.15.54,11.09-3.22,15.21-2.71,3.48-7.26,4.31-11.36,4.86-.02,9.86-.01,19.72-.01,29.58,6.23,6.24,12.46,12.49,18.76,18.67,1.79,1.86,4.03,3.83,3.96,6.66.25,8.66-.08,17.33.11,26-.09,2.66.25,5.46-.68,8.01-1.42,3.11-6.01,3.82-8.38,1.4-1.78-1.6-1.55-4.21-1.68-6.37.01-9.05.05-18.1.03-27.15-6.31-6.29-12.54-12.66-18.93-18.88-1.88-1.87-4.04-3.99-3.83-6.89-.13-10.34.05-20.69-.03-31.03-3.42-.57-7.17-.95-9.86-3.38-3.21-2.56-4.68-6.69-4.64-10.71-.03-5.31-.4-10.68.42-15.95.98-5.38,5.9-9.13,11.1-10.04ZM119.16,11.16c-1.61,2.53-.59,5.94-.9,8.81.33,2.86-.76,6.24.97,8.73,5.47.65,11.08.61,16.56.02.16-.28.49-.84.66-1.11.46-5.04.41-10.17.04-15.21-.07-1.74-2.21-1.53-3.41-1.65-4.63.06-9.35-.46-13.92.41Z"/>
  <path d="M295.34,0h16.56c3.64.78,7.33,2.44,9.38,5.7,2.94,4.17,2.2,9.51,2.35,14.31-.07,5.19.56,11.19-3.31,15.3-2.7,3.42-7.19,4.23-11.26,4.75,0,8.99-.05,17.99.04,26.98-.02,3.12.19,6.56-1.91,9.13-4.2,5.84-8.62,11.52-12.89,17.3-.92,1.37-2.05,2.76-2.07,4.49-.39,9.67.31,19.37-.22,29.04.02,3.94-4.99,6.22-8.11,4.01-2.74-1.67-2.34-5.26-2.45-8.01.1-8.67.01-17.34.02-26.01-.41-5.55,4.24-9.33,7.04-13.54,3.11-4.54,7.03-8.58,9.56-13.5.81-9.9.08-19.91.31-29.86-4.17-.56-8.78-1.43-11.48-5.01-3.65-4.13-3.02-9.96-3.1-15.06.14-4.91-.62-10.44,2.56-14.63,2.05-3.04,5.54-4.56,8.98-5.39ZM295.22,11.32c-1.44,5.27-.66,11.17-.43,16.65.31.22.94.65,1.26.87,5.24.43,10.56.44,15.8-.06.2-.27.6-.81.81-1.09.46-5.13.43-10.35.02-15.48-.63-2.06-3.09-1.25-4.69-1.5-4.23.23-8.69-.62-12.77.61Z"/>
  <path d="M376.19,0h16.31c3.54.68,7.12,2.2,9.25,5.24,3.25,4.19,2.54,9.81,2.68,14.77-.1,5.14.53,11.06-3.2,15.17-2.71,3.51-7.27,4.35-11.39,4.9-.08,10.35.11,20.71-.04,31.06.2,2.87-1.92,4.99-3.78,6.85-6.38,6.24-12.65,12.59-18.97,18.89.01,8.38-.03,16.76.05,25.13-.06,2.21.07,4.48-.54,6.63-1.13,3.21-5.66,4.24-8.19,2.06-2.35-1.83-1.9-5.11-2.03-7.73.16-9.33-.12-18.67.11-28.01-.07-2.78,2.15-4.73,3.92-6.56,6.33-6.17,12.53-12.48,18.8-18.71,0-9.87.01-19.74-.01-29.61-3.64-.58-7.67-1.05-10.38-3.85-2.9-2.56-4.12-6.45-4.12-10.22-.03-5.32-.4-10.71.42-15.99.99-5.38,5.91-9.11,11.11-10.02ZM376.17,11.15c-1.64,2.54-.6,5.97-.91,8.87.33,2.82-.76,6.21.96,8.66,5.46.7,11.08.6,16.56.05,1.9-3.5.54-7.89.96-11.74-.23-2.17.81-6.39-2.66-6.18-4.96-.05-10.01-.51-14.91.34Z"/>
  <path d="M240.99,41.95c3.18-3.38,6.97-7.1,11.99-6.84,5.3-.23,9.08,3.91,12.46,7.37,3.45,3.59,8.06,7.06,8.35,12.47.68,5.1-2.78,9.3-6.29,12.5-3.99,3.67-7.53,8.97-13.43,9.37-3.82.58-7.22-1.52-10.22-3.59-6.42,7.62-12.88,15.2-19.3,22.82.01,9.34,0,18.67.03,28.01-.02,2.24-.01,4.97-2.05,6.43-2.93,2.58-8.3.54-8.49-3.43-.41-9.36.01-18.75-.18-28.12.08-3.09-.49-6.69,1.95-9.09,6.83-8.05,13.64-16.13,20.49-24.17-2.43-3.07-4.83-6.68-4.21-10.81.35-5.66,5.35-9.14,8.9-12.92ZM242.26,55.99c3.39,3.72,6.96,7.29,10.69,10.67,3.72-3.38,7.28-6.94,10.66-10.66-3.38-3.73-6.95-7.29-10.67-10.68-3.73,3.38-7.28,6.96-10.68,10.67Z"/>
  <path d="M168.89,41.86c4.76-4.87,12.05-3.47,18.17-3.69,5.07-.25,10.88.23,14.32,4.49,3.91,4.14,3.21,10.17,3.26,15.39-.09,5.03.66,10.74-2.83,14.9-2.7,3.73-7.39,4.93-11.74,5.23,0,15.96.08,31.92-.03,47.88.34,3.31-2.75,6.36-6.07,5.75-2.79-.31-4.71-3.03-4.52-5.75-.08-15.95-.01-31.9-.02-47.85-4.26-.36-8.88-1.45-11.58-5.07-3.89-4.48-2.81-10.74-2.99-16.19-.1-5.23-.27-11.31,4.03-15.09ZM177.09,49.11c-.32.24-.96.72-1.28.97-.46,5.24-.45,10.58-.01,15.83.31.28.93.85,1.24,1.13,5.24.4,10.58.49,15.81-.09.21-.28.64-.84.86-1.12.43-5.17.44-10.43-.01-15.59-.21-.27-.64-.81-.85-1.08-5.22-.51-10.54-.5-15.76-.05Z"/>
  <path d="M323.48,58.54c4.09-4,10.29-2.82,15.47-2.94,5.11-.34,10.35,3.17,11.18,8.37.51,4.64.59,9.41-.11,14.04-.9,4.52-5.22,6.98-9.34,8.02-.12,13.64.14,27.28-.11,40.91,0,4.04-5.28,6.42-8.38,3.91-2.28-1.48-2.2-4.42-2.22-6.81.05-12.67.04-25.35.02-38.03-4.87-.97-9.57-4.64-9.66-9.96.1-5.83-1.58-12.98,3.15-17.51ZM330.69,66.27c.07,3.02.13,6.05.21,9.08,3.02-.06,6.04-.13,9.07-.2-.07-2.96-.14-5.92-.2-8.88h-9.08Z"/>
  <path d="M260.27,90.39c3.57-1.45,7.6,1.8,7.13,5.58.06,10.02.07,20.05,0,30.07.43,3.74-3.56,6.91-7.07,5.53-2.76-.83-3.78-3.85-3.57-6.47.03-9.71-.06-19.42.03-29.13-.13-2.37,1.15-4.82,3.48-5.58Z"/>
  <path d="M5.26,110.23c4.19-3.25,9.81-2.48,14.76-2.62,5.13.1,11.07-.6,15.17,3.16,3.5,2.69,4.33,7.25,4.9,11.36,10.35.08,20.7-.12,31.04.05,3.15-.18,5.35,2.29,7.39,4.3,6.06,6.21,12.24,12.3,18.36,18.46,8.38-.02,16.75.02,25.13-.06,2.2.05,4.46-.06,6.61.55,3.26,1.12,4.27,5.72,2.02,8.26-1.83,2.26-5.05,1.83-7.63,1.96-9.32-.16-18.65.1-27.97-.1-2.81.09-4.79-2.12-6.63-3.91-6.19-6.34-12.5-12.56-18.75-18.83-9.85-.01-19.71-.02-29.56,0-.57,4.13-1.39,8.71-4.92,11.41-4.12,3.75-10.05,3.08-15.19,3.17-4.96-.14-10.58.62-14.76-2.66-3.28-2.31-4.87-6.25-5.23-10.13v-15.1c.66-3.56,2.22-7.13,5.26-9.27ZM12.38,118.51l-1.2.68c-.99,4.85-.42,9.93-.4,14.87-.17,3.49,4.02,2.41,6.21,2.65,3.84-.44,8.25.96,11.72-.95.74-4.2.33-8.49.4-12.72-.16-1.68.33-4.64-2.16-4.6-4.85-.2-9.73-.31-14.57.07Z"/>
  <path d="M476.27,111.26c3.26-3.44,8.27-3.71,12.72-3.65,4.62.12,9.34-.37,13.88.69,4.99,1.33,8.26,6.04,9.13,10.95v15.26c-.35,3.91-1.93,7.9-5.24,10.22-4.19,3.28-9.81,2.53-14.78,2.66-5.12-.1-11.06.58-15.16-3.17-3.52-2.7-4.36-7.28-4.92-11.41-9.85-.02-19.69-.01-29.54-.01-6.25,6.28-12.58,12.5-18.77,18.84-1.84,1.77-3.79,3.98-6.58,3.9-9.35.22-18.71-.05-28.06.11-2.78-.08-6.41.26-8.03-2.56-2.09-3.1.15-7.98,4.02-7.99,10.04-.45,20.12-.02,30.18-.16,6.85-6.78,13.59-13.67,20.44-20.44,1.63-1.77,3.99-2.5,6.36-2.38,9.99-.04,19.99.05,29.99.01.57-3.87,1.22-8.15,4.36-10.87ZM484.33,118.55l-1.04.68c-.75,4.56-.37,9.23-.35,13.84.18,1.22-.19,3.05,1.44,3.37,4.2.5,8.46.19,12.69.24,1.36-.19,3.77.32,4.01-1.65.47-4.33.22-8.7.2-13.05-.14-1.2.07-3.39-1.65-3.46-5.08-.35-10.23-.39-15.3.03Z"/>
  <path d="M165.48,144.55c2.48-.48,5-.54,7.51-.57,56,.05,112,0,168,.04,8.29-.11,16.51,3.84,21.48,10.49,3.86,4.94,5.67,11.27,5.51,17.5-.03,56.34.01,112.69-.03,169.03.17,9.76-5.49,19.33-14.17,23.81-4.22,2.32-9.06,3.2-13.84,3.16-56.31-.03-112.63.02-168.94-.03-8.77.12-17.41-4.37-22.3-11.64-3.35-4.76-4.82-10.62-4.68-16.39.03-56.34-.01-112.68.02-169.02-.35-12.45,9.21-24.17,21.44-26.38ZM165.35,155.61c-6.39,2.18-10.85,8.69-10.65,15.44-.01,56.64-.02,113.29.01,169.94-.24,6.53,4.03,12.75,10.04,15.18,4.21,1.63,8.82,1.09,13.23,1.17,53.35,0,106.7-.04,160.05.02,4.98.23,10.36-.61,14.04-4.27,4.35-3.71,5.62-9.62,5.27-15.09-.08-55.68.01-111.35-.05-167.03.36-8.75-7.54-16.65-16.29-16.29-56.33-.04-112.66.02-168.99-.03-2.24.05-4.53.2-6.66.96Z"/>
  <path d="M55.68,172.05c-.13-5.16,4.1-10.02,9.29-10.32,4.63-.16,9.4-.61,13.94.5,4.06,1.25,6.09,5.27,7.12,9.09,13.61.11,27.23-.14,40.84.1,4.1-.06,6.52,5.3,3.95,8.42-1.49,2.25-4.42,2.16-6.8,2.19-12.67-.05-25.34-.04-38.02-.02-.97,4.83-4.57,9.53-9.87,9.64-5.86-.15-13.05,1.61-17.59-3.15-4.19-4.39-2.74-10.97-2.86-16.45ZM66.29,172.22c0,3.02.01,6.04,0,9.06,3.02-.06,6.04-.12,9.06-.16-.07-3.03-.13-6.06-.19-9.08-2.96.06-5.92.12-8.87.18Z"/>
  <path d="M438.85,167.84c4.48-3.85,10.72-2.85,16.16-3.01,5.23-.08,11.33-.26,15.11,4.04,4.86,4.75,3.48,12.01,3.69,18.11.25,5.07-.19,10.9-4.43,14.36-4.13,3.93-10.17,3.25-15.39,3.29-5.05-.1-10.78.7-14.94-2.83-3.74-2.69-4.94-7.39-5.22-11.75-15.61.03-31.22.01-46.83.03-2.61.2-5.65-.71-6.53-3.45-1.51-3.57,1.73-7.61,5.51-7.2,15.93-.09,31.88-.01,47.82-.02.35-4.26,1.43-8.88,5.05-11.57ZM445.36,176.24c-1.27,5.33-.64,11.14-.34,16.61.29.22.89.65,1.19.86,5.14.41,10.38.43,15.52-.01.28-.21.82-.62,1.09-.83.53-5.26.49-10.61.07-15.87l-.92-1.2c-5.47-.22-11.35-1.02-16.61.44Z"/>
  <path d="M5.63,190.76c4.15-2.97,9.5-2.28,14.3-2.42,5.22.07,11.24-.54,15.39,3.33,3.41,2.71,4.2,7.19,4.76,11.26,10.01.05,20.02-.07,30.03,0,2.74-.17,5.22,1.07,7.31,2.72,6.31,4.77,12.68,9.46,19.02,14.19,10.22.17,20.45-.26,30.65.17,3.86-.01,6.08,4.91,3.97,7.98-1.63,2.79-5.24,2.5-8.02,2.58-8.69-.09-17.38-.01-26.08-.03-5.3.43-8.98-3.95-12.98-6.66-4.73-3.24-8.94-7.3-14.02-9.97-9.9-.81-19.9-.08-29.84-.31-.61,4.14-1.44,8.75-5,11.45-4.13,3.71-10,3.04-15.12,3.13-4.91-.14-10.42.61-14.61-2.55-3.33-2.27-4.98-6.21-5.39-10.11v-14.07c.26-4.15,2.05-8.36,5.63-10.7ZM12.19,199.31c-.3.22-.9.66-1.21.88-.3,5.46-.92,11.25.34,16.57,5.27,1.46,11.19.64,16.67.44.22-.32.64-.96.86-1.28.44-5.23.47-10.55-.07-15.77-.26-.2-.78-.61-1.04-.81-5.15-.5-10.4-.48-15.55-.03Z"/>
  <path d="M208.36,213.42c8.25-10.03,21.82-15.37,34.69-13.41,13.87,1.77,26.18,11.9,30.73,25.09,2,5.38,2.3,11.18,2.23,16.86-.1,21.71.11,43.43-.09,65.14.23,3.84-4.42,6.6-7.71,4.69-2.22-1-2.98-3.54-2.88-5.79-.03-13.04.02-26.09,0-39.13-18.39-.01-36.77,0-55.16,0-.07,13.39.13,26.78-.08,40.17.24,3.59-3.79,6.38-7.08,5.03-2.57-.8-3.68-3.59-3.5-6.08-.01-22.66-.02-45.31.01-67.96-.04-8.91,3.1-17.78,8.84-24.61ZM225.98,212.92c-7.91,3.71-13.87,11.35-15.34,19.98-.99,7.72-.25,15.54-.47,23.3h55.15c-.08-6.72.18-13.45-.11-20.17-.46-9.16-6-17.79-13.99-22.23-7.62-4.33-17.34-4.69-25.24-.88Z"/>
  <path d="M304.36,200.4c3.34-2.29,8.4.55,8.07,4.63.18,33-.02,66.01.1,99.02-.05,2.53.19,5.69-2.2,7.3-2.66,2.12-7.14.82-8.14-2.45-.66-3.25-.31-6.59-.37-9.88.02-30.69.03-61.38,0-92.06-.04-2.39.18-5.29,2.55-6.56Z"/>
  <path d="M380.41,219.99c-.58-3.2,2.26-6.29,5.48-6.06,9.02-.21,18.05.04,27.08-.1,3.11.08,6.75-.47,9.18,1.97,8.05,6.84,16.15,13.62,24.17,20.49,3.07-2.41,6.64-4.81,10.77-4.2,5.4.27,8.84,4.9,12.42,8.33,3.5,3.4,7.68,7.24,7.38,12.59.14,6.63-5.89,10.59-9.9,14.96-3.05,3.37-7.17,6.43-11.99,5.81-5.12-.23-8.56-4.45-11.92-7.77-3.33-3.39-7.62-6.78-7.92-11.92-.59-3.84,1.48-7.26,3.62-10.23-7.6-6.46-15.21-12.9-22.83-19.33-10-.04-20.01.09-30-.03-2.66.14-5.24-1.81-5.54-4.51ZM445.33,252.95c3.4,3.7,6.95,7.27,10.67,10.66,3.73-3.38,7.28-6.95,10.68-10.66-3.37-3.75-6.95-7.31-10.68-10.69-3.72,3.39-7.29,6.96-10.67,10.69Z"/>
  <path d="M44.57,244.49c3.19-3.48,7.35-6.94,12.42-6.28,5.16.2,8.59,4.48,11.98,7.81,3.3,3.38,7.55,6.75,7.86,11.85.58,3.84-1.47,7.29-3.61,10.27,7.63,6.43,15.24,12.87,22.85,19.32,9.34.01,18.68.02,28.02-.02,2.04.06,4.43-.09,5.96,1.54,2.61,2.37,1.83,7.13-1.38,8.56-2.12.79-4.45.55-6.68.63-9-.11-18,.05-27-.06-2.21.15-4.15-.94-5.72-2.37-7.84-6.71-15.73-13.37-23.6-20.04-3.03,2.48-6.65,4.8-10.77,4.19-5.67-.33-9.16-5.32-12.95-8.87-3.37-3.18-7.09-6.96-6.84-11.98-.22-6.43,5.54-10.35,9.46-14.55ZM45.32,259.05c3.38,3.73,6.95,7.29,10.67,10.68,3.73-3.38,7.31-6.94,10.68-10.69-3.39-3.71-6.95-7.28-10.67-10.66-3.72,3.4-7.27,6.97-10.68,10.67Z"/>
  <path d="M92.42,245.48c1.96-1.2,4.39-.8,6.58-.92,9.36.17,18.73-.16,28.08.14,3.94.03,6.16,5.14,3.86,8.2-1.67,2.67-5.16,2.33-7.89,2.4-9.35-.17-18.72.19-28.07-.16-4.91.02-6.68-7.22-2.56-9.66Z"/>
  <path d="M382.53,257.63c2.26-1.25,4.99-.81,7.48-.93,9.01.18,18.04-.2,27.04.16,5.28,0,6.64,8.13,1.83,10.04-4.18,1.11-8.59.39-12.87.57-7.33-.21-14.71.42-22.01-.3-4.32-.88-5.23-7.35-1.47-9.54Z"/>
  <path d="M380.42,288.59c-1.23-3.16,1.23-6.98,4.66-6.99,8.32-.42,16.66.05,24.98-.17,3.86.12,8.23-.68,11.5,1.9,6.82,4.97,13.53,10.09,20.35,15.07,9.99,0,19.98.01,29.98,0,.58-4.16,1.43-8.76,4.99-11.47,4.14-3.7,10.02-3.02,15.15-3.11,4.9.14,10.43-.62,14.6,2.57,3.31,2.26,4.94,6.18,5.37,10.05v14.73c-.5,3.94-2.26,7.92-5.71,10.12-4.17,2.93-9.51,2.24-14.31,2.38-5.2-.07-11.2.51-15.31-3.35-3.41-2.71-4.2-7.19-4.75-11.24-10-.06-20.01.07-30.02,0-2.44.1-4.76-.78-6.65-2.28-5.37-4.01-10.75-8.01-16.1-12.05-1.79-1.31-3.73-2.77-6.09-2.59-9.07-.18-18.15.21-27.21-.07-2.32.08-4.73-1.15-5.43-3.48ZM484.02,294.78c-.22.3-.66.92-.88,1.23-.42,5.23-.46,10.55.06,15.79.27.21.79.65,1.05.86,5.33.38,10.87.73,16.15-.2,1.79-3.36.57-7.69.94-11.42-.32-2.04.72-5.02-1.4-6.28-5.28-.43-10.64-.41-15.92.02Z"/>
  <path d="M42.15,311.1c3.81-4.08,9.74-3.82,14.86-3.73,5.38.17,11.52-.9,16,2.85,3.71,2.7,4.86,7.39,5.16,11.73,15.98,0,31.95-.07,47.93.02,3.64-.43,6.79,3.44,5.51,6.91-.78,2.83-3.88,3.94-6.55,3.73-15.62,0-31.24,0-46.85-.02-.36,4.27-1.47,8.88-5.09,11.59-4.16,3.61-9.99,2.9-15.08,2.98-5.33-.02-11.52.58-15.64-3.53-3.96-3.36-4.44-8.86-4.21-13.7.24-6.34-1.32-14.01,3.96-18.83ZM50.23,318.3c-.27.22-.8.64-1.06.85-.51,5.22-.5,10.54-.05,15.77.23.32.7.95.93,1.27,5.45.23,11.36,1.04,16.59-.46,1.27-5.32.65-11.14.33-16.62-.28-.2-.84-.62-1.13-.82-5.17-.41-10.44-.43-15.61.01Z"/>
  <path d="M425.99,329.99c.96-4.86,4.61-9.57,9.93-9.64,5.48.15,11.87-1.4,16.56,2.24,3.21,2.4,4.07,6.58,3.93,10.38-.1,4.84.78,10.63-3.09,14.33-2.85,3.17-7.37,3.21-11.29,3.16-3.86-.12-8.22.47-11.49-2.04-2.67-1.74-3.6-4.91-4.58-7.74-13.61-.11-27.24.15-40.85-.11-3.8.04-6.27-4.64-4.32-7.83,1.13-2.32,3.85-2.86,6.2-2.75,13-.01,26,.03,39,0ZM436.64,330.89c.07,3.03.14,6.05.2,9.07,2.96-.06,5.91-.13,8.87-.18-.01-3.03-.01-6.06,0-9.08-3.03.06-6.05.13-9.07.19Z"/>
  <path d="M89.36,359.43c1.71-1.86,3.99-3.26,6.6-3.03,10.31.06,20.64-.18,30.94.12,3.78-.07,6.23,4.55,4.33,7.73-1.29,2.73-4.62,2.82-7.22,2.84-9.04,0-18.09-.05-27.14-.03-6.83,6.77-13.56,13.64-20.4,20.4-1.63,1.79-3.99,2.55-6.38,2.42-10,.04-20-.06-30-.01-.56,4.12-1.42,8.67-4.92,11.37-4.13,3.75-10.08,3.05-15.23,3.15-4.92-.14-10.51.62-14.66-2.63-3.3-2.3-4.92-6.25-5.28-10.14v-15.1c.66-3.56,2.2-7.14,5.25-9.28,4.15-3.25,9.73-2.5,14.66-2.63,5.17.1,11.16-.62,15.3,3.18,3.51,2.71,4.32,7.28,4.89,11.4,9.85.02,19.71.01,29.57.01,6.57-6.58,13.16-13.16,19.69-19.77ZM12.42,375.5c-2.1.26-1.55,3.05-1.74,4.55.15,4.24-.48,8.6.49,12.76,2.48,1.64,5.92.57,8.77.9,2.86-.34,6.26.76,8.76-.94.76-4.21.34-8.53.41-12.78-.14-1.68.28-4.63-2.2-4.55-4.82-.21-9.68-.29-14.49.06Z"/>
  <path d="M380.93,358.88c1.39-2.48,4.5-2.5,6.98-2.52,8.38.02,16.77.09,25.15,0,2.9.04,6.3-.3,8.48,2.07,7.01,6.85,13.85,13.88,20.82,20.78,9.84,0,19.69.01,29.54-.01.56-4.13,1.39-8.72,4.92-11.42,4.11-3.78,10.07-3.05,15.21-3.16,4.95.13,10.55-.61,14.72,2.64,2.98,2.08,4.47,5.57,5.25,9v15.27c-.35,3.92-1.94,7.91-5.26,10.23-4.19,3.26-9.8,2.5-14.75,2.64-5.14-.1-11.08.6-15.18-3.17-3.5-2.7-4.34-7.24-4.9-11.35-9.31-.01-18.61-.03-27.91.05-2.73-.06-5.88.19-7.92-2-7.08-6.85-13.92-13.95-20.95-20.86-10.07-.14-20.15.29-30.2-.16-3.86-.02-6.11-4.92-4-8.02ZM484.42,375.55c-.29.16-.87.5-1.16.67-.61,5.46-.6,11.06-.01,16.53,3.49,1.9,7.87.53,11.71.96,1.94-.39,5.48.87,6.12-1.73.41-4.96.41-9.99,0-14.95-.01-1.65-1.89-1.6-3.03-1.67-4.54-.04-9.11-.29-13.63.19Z"/>
  <path d="M145.43,383.37c1.12-3.26,5.72-4.27,8.25-2.03,2.29,1.84,1.84,5.08,1.98,7.68-.17,9.34.12,18.69-.11,28.02.05,2.79-2.16,4.75-3.94,6.6-6.31,6.19-12.54,12.44-18.79,18.7.01,9.86,0,19.72.02,29.58,4.11.54,8.66,1.36,11.36,4.86,3.77,4.11,3.12,10.06,3.22,15.21-.13,4.97.57,10.59-2.69,14.78-2.09,2.96-5.57,4.45-9,5.23h-16.17c-3.58-.66-7.19-2.21-9.33-5.28-3.24-4.18-2.52-9.78-2.65-14.72.1-5.14-.57-11.08,3.18-15.18,2.71-3.51,7.27-4.37,11.4-4.9.01-9.29.03-18.59-.05-27.89.06-2.73-.24-5.9,1.95-7.95,6.85-7.1,13.97-13.94,20.89-20.97-.01-8.38.03-16.76-.05-25.14.05-2.21-.07-4.46.53-6.6ZM119.19,483.32c-1.86,3.47-.52,7.84-.93,11.67.23,2.16-.81,6.42,2.66,6.2,4.95.06,10.01.5,14.91-.34.16-.3.49-.9.65-1.2.45-4.84.3-9.75.09-14.61.02-2.44-2.88-2-4.53-2.13-4.28.08-8.62-.36-12.85.41Z"/>
  <path d="M171.36,385.94c-.2-2.76,1.8-5.52,4.63-5.77,3.28-.54,6.29,2.46,5.97,5.73.12,13.36-.02,26.72.05,40.09,4.88.96,9.58,4.64,9.66,9.97-.1,5.65,1.46,12.38-2.68,17.01-4.01,4.5-10.58,3.35-15.95,3.43-5.13.33-10.39-3.21-11.19-8.44-.48-4.63-.57-9.37.12-13.98.93-4.52,5.22-6.99,9.35-8.02.07-13.34-.05-26.69.04-40.02ZM172.03,436.85c.06,2.96.13,5.92.2,8.89,3.03-.01,6.06-.02,9.09-.02-.08-3.03-.15-6.05-.23-9.08-3.02.07-6.04.13-9.06.21Z"/>
  <path d="M221.57,381.51c2.44-2.38,7.1-1.55,8.38,1.67.84,2.85.53,5.88.59,8.81-.15,8.04.1,16.08-.06,24.11.13,3.07-1.8,5.58-3.54,7.9-4.51,5.91-8.89,11.92-13.33,17.89.01,10,0,20.01.01,30.01,4.16.57,8.78,1.43,11.47,5,3.68,4.12,3.01,9.99,3.11,15.09-.13,4.91.59,10.42-2.56,14.61-2.06,3.04-5.57,4.58-9.04,5.4h-16.46c-3.64-.77-7.33-2.42-9.39-5.66-2.98-4.16-2.24-9.52-2.38-14.32.08-5.2-.59-11.2,3.28-15.32,2.71-3.44,7.21-4.25,11.29-4.75,0-8.98.04-17.95-.04-26.91.03-3.12-.22-6.58,1.87-9.16,4.34-6.03,8.94-11.87,13.31-17.88,1.1-1.45,1.86-3.15,1.76-4.99.12-8.35-.09-16.7-.03-25.04.13-2.2-.09-4.87,1.76-6.46ZM200.19,483.21c-.21.25-.63.77-.85,1.02-.46,5.15-.44,10.39-.02,15.54.2.3.6.91.81,1.22,5.48.28,11.31.92,16.63-.34,1.49-5.23.66-11.15.46-16.61-.3-.22-.9-.67-1.2-.89-5.25-.39-10.58-.44-15.83.06Z"/>
  <path d="M248.29,380.37c3.52-1.25,7.35,1.94,6.91,5.62.07,10.03.07,20.07,0,30.1.27,3-2.17,5.88-5.23,5.83-3.13.14-5.66-2.8-5.37-5.86-.06-10.03-.07-20.06,0-30.09-.15-2.43,1.27-4.93,3.69-5.6Z"/>
  <path d="M323.57,381.59c2.03-2.04,5.71-1.92,7.6.25,1.58,1.62,1.35,4.05,1.44,6.13-.07,15.27,0,30.55-.04,45.82,4.29.35,8.93,1.46,11.63,5.12,4.02,4.77,2.68,11.37,2.94,17.1.16,4.93-.03,10.57-4.02,14.11-4.74,4.86-12.01,3.5-18.11,3.71-5.07.24-10.9-.2-14.34-4.46-3.96-4.11-3.27-10.16-3.31-15.39.1-5.03-.69-10.74,2.8-14.91,2.69-3.76,7.4-4.95,11.77-5.25-.05-15.29.02-30.58-.04-45.86.09-2.18-.15-4.8,1.68-6.37ZM319.13,445.05c-.21.28-.63.86-.84,1.14-.43,5.19-.45,10.46.03,15.65.21.25.63.74.85.99,5.24.54,10.59.48,15.85.07.29-.24.88-.73,1.17-.98.51-4.28.24-8.6.26-12.9-.17-1.39.31-3.62-1.53-4.06-5.24-.4-10.57-.49-15.79.09Z"/>
  <path d="M356.76,383.7c.86-3.34,5.39-4.64,8.06-2.59,2.28,1.46,2.17,4.45,2.26,6.84-.01,9.05-.05,18.1-.03,27.15,6.77,6.85,13.7,13.56,20.44,20.44,1.79,1.64,2.49,4.02,2.36,6.4.02,10-.05,19.99-.01,29.98,4.11.55,8.66,1.36,11.36,4.86,3.77,4.12,3.12,10.07,3.22,15.23-.13,4.94.57,10.52-2.66,14.71-2.08,2.99-5.57,4.5-9.02,5.28h-16.16c-3.56-.66-7.16-2.17-9.3-5.23-3.28-4.17-2.57-9.79-2.7-14.74.11-5.15-.58-11.11,3.19-15.22,2.7-3.51,7.26-4.36,11.39-4.89.02-9.87.01-19.74,0-29.62-6.26-6.22-12.45-12.53-18.78-18.69-1.8-1.85-4.03-3.83-3.94-6.66-.24-7.63.08-15.28-.07-22.91.05-3.45-.31-6.95.39-10.34ZM376.21,483.32c-.17.27-.5.8-.66,1.07-.5,4.82-.31,9.71-.14,14.56-.12,1.5,1.15,2.42,2.58,2.24,4.66.15,9.35.3,14-.13,1.59.05,1.58-1.93,1.68-3.03.03-4.54.3-9.13-.22-13.65-.16-.26-.49-.78-.65-1.04-5.46-.71-11.13-.68-16.59-.02Z"/>
  <path d="M287.56,385.09c.11-3.81,5.01-6.07,8.08-3.89,2.78,1.58,2.44,5.12,2.5,7.86-.1,9.31.04,18.63-.05,27.94.16,2.2-.91,4.15-2.34,5.72-6.71,7.84-13.34,15.75-20.03,23.61,2.43,3.05,4.78,6.64,4.18,10.76-.35,5.65-5.28,9.16-8.84,12.94-3.21,3.37-7,7.12-12.04,6.86-5.87.21-9.73-4.75-13.51-8.45-3.5-3.35-7.61-7.18-7.34-12.47-.25-5.29,3.89-9.08,7.37-12.43,3.57-3.44,7.02-8.03,12.39-8.36,3.82-.58,7.25,1.45,10.2,3.6,6.45-7.59,12.88-15.2,19.31-22.8.11-10.3-.19-20.6.12-30.89ZM248.38,456c3.39,3.72,6.96,7.27,10.66,10.68,3.75-3.37,7.31-6.94,10.69-10.67-3.38-3.74-6.94-7.31-10.7-10.68-3.69,3.41-7.26,6.96-10.65,10.67Z"/>
</svg>