<svg width="16" height="16" viewBox="0 0 16 16" fill="none" xmlns="http://www.w3.org/2000/svg">
<path d="M15.2807 14.2194C15.3504 14.2891 15.4056 14.3718 15.4433 14.4629C15.4811 14.5539 15.5005 14.6515 15.5005 14.7501C15.5005 14.8486 15.4811 14.9462 15.4433 15.0372C15.4056 15.1283 15.3504 15.211 15.2807 15.2807C15.211 15.3504 15.1283 15.4056 15.0372 15.4433C14.9462 15.4811 14.8486 15.5005 14.7501 15.5005C14.6515 15.5005 14.5539 15.4811 14.4629 15.4433C14.3718 15.4056 14.2891 15.3504 14.2194 15.2807L8.00005 9.06036L1.78068 15.2807C1.63995 15.4214 1.44907 15.5005 1.25005 15.5005C1.05103 15.5005 0.860156 15.4214 0.719426 15.2807C0.578695 15.1399 0.499634 14.9491 0.499634 14.7501C0.499634 14.551 0.578695 14.3602 0.719426 14.2194L6.93974 8.00005L0.719426 1.78068C0.578695 1.63995 0.499634 1.44907 0.499634 1.25005C0.499634 1.05103 0.578695 0.860156 0.719426 0.719426C0.860156 0.578695 1.05103 0.499634 1.25005 0.499634C1.44907 0.499634 1.63995 0.578695 1.78068 0.719426L8.00005 6.93974L14.2194 0.719426C14.3602 0.578695 14.551 0.499634 14.7501 0.499634C14.9491 0.499634 15.1399 0.578695 15.2807 0.719426C15.4214 0.860156 15.5005 1.05103 15.5005 1.25005C15.5005 1.44907 15.4214 1.63995 15.2807 1.78068L9.06036 8.00005L15.2807 14.2194Z" fill="black"/>
</svg>
