<svg width="24" height="25" viewBox="0 0 24 25" fill="none" xmlns="http://www.w3.org/2000/svg">
<path d="M10.4522 5.50413C10.276 5.32844 10.0585 5.19995 9.81956 5.13052C9.58066 5.06108 9.32812 5.05294 9.08524 5.10684C8.84236 5.16074 8.61697 5.27495 8.42987 5.43892C8.24276 5.6029 8.09998 5.81136 8.01468 6.04507L3.09374 19.5807C3.01291 19.8039 2.98679 20.0432 3.0176 20.2786C3.04841 20.514 3.13523 20.7386 3.27079 20.9335C3.40635 21.1284 3.58668 21.2879 3.79665 21.3987C4.00662 21.5094 4.2401 21.5682 4.47749 21.5701C4.65228 21.5689 4.82551 21.5372 4.98937 21.4763L18.5241 16.5544C18.7578 16.4693 18.9664 16.3265 19.1305 16.1395C19.2945 15.9524 19.4089 15.7271 19.4629 15.4842C19.5169 15.2413 19.5088 14.9887 19.4394 14.7497C19.37 14.5108 19.2416 14.2932 19.0659 14.1169L10.4522 5.50413ZM9.67124 18.1801L6.38999 14.8988L7.62374 11.5041L13.0659 16.9463L9.67124 18.1801ZM4.51499 20.0551L5.82749 16.4541L8.11968 18.7463L4.51499 20.0551ZM14.625 16.3801L8.18999 9.94507L9.40874 6.58226L17.9803 15.1538L14.625 16.3801ZM15 7.32007C15.0141 6.81304 15.1368 6.31494 15.36 5.85944C15.8569 4.86663 16.7944 4.32007 18 4.32007C18.6281 4.32007 19.0312 4.10538 19.2797 3.64413C19.4105 3.38608 19.4856 3.1034 19.5 2.81444C19.5007 2.61553 19.5805 2.42506 19.7217 2.28494C19.8628 2.14481 20.0539 2.06651 20.2528 2.06726C20.4517 2.068 20.6422 2.14773 20.7823 2.28891C20.9224 2.43009 21.0007 2.62116 21 2.82007C21 4.02569 20.2012 5.82007 18 5.82007C17.3719 5.82007 16.9687 6.03476 16.7203 6.49601C16.5895 6.75406 16.5144 7.03674 16.5 7.32569C16.4996 7.42418 16.4799 7.52164 16.4418 7.61249C16.4038 7.70334 16.3482 7.78582 16.2783 7.8552C16.2084 7.92458 16.1255 7.97952 16.0344 8.01687C15.9433 8.05422 15.8457 8.07325 15.7472 8.07288C15.6487 8.07251 15.5512 8.05275 15.4604 8.01471C15.3695 7.97668 15.2871 7.92113 15.2177 7.85122C15.1483 7.78132 15.0934 7.69843 15.056 7.6073C15.0187 7.51616 14.9996 7.41856 15 7.32007ZM12.75 4.32007V2.07007C12.75 1.87116 12.829 1.68039 12.9697 1.53974C13.1103 1.39909 13.3011 1.32007 13.5 1.32007C13.6989 1.32007 13.8897 1.39909 14.0303 1.53974C14.171 1.68039 14.25 1.87116 14.25 2.07007V4.32007C14.25 4.51898 14.171 4.70975 14.0303 4.8504C13.8897 4.99105 13.6989 5.07007 13.5 5.07007C13.3011 5.07007 13.1103 4.99105 12.9697 4.8504C12.829 4.70975 12.75 4.51898 12.75 4.32007ZM22.2806 12.0394C22.3502 12.1091 22.4055 12.1918 22.4431 12.2829C22.4808 12.3739 22.5001 12.4714 22.5001 12.5699C22.5 12.6684 22.4806 12.766 22.4429 12.857C22.4051 12.9479 22.3498 13.0306 22.2801 13.1002C22.2105 13.1698 22.1278 13.2251 22.0367 13.2627C21.9457 13.3004 21.8482 13.3197 21.7497 13.3197C21.6512 13.3196 21.5536 13.3002 21.4626 13.2625C21.3717 13.2247 21.289 13.1694 21.2194 13.0998L19.7194 11.5998C19.5786 11.459 19.4996 11.2682 19.4996 11.0691C19.4996 10.8701 19.5786 10.6792 19.7194 10.5385C19.8601 10.3978 20.051 10.3187 20.25 10.3187C20.449 10.3187 20.6399 10.3978 20.7806 10.5385L22.2806 12.0394ZM22.7372 8.03163L20.4872 8.78163C20.2985 8.84454 20.0925 8.8299 19.9146 8.74094C19.7366 8.65197 19.6013 8.49597 19.5384 8.30726C19.4755 8.11854 19.4902 7.91256 19.5791 7.73463C19.6681 7.55671 19.8241 7.42141 20.0128 7.35851L22.2628 6.60851C22.4515 6.5456 22.6575 6.56024 22.8354 6.6492C23.0134 6.73816 23.1486 6.89416 23.2116 7.08288C23.2745 7.2716 23.2598 7.47758 23.1709 7.6555C23.0819 7.83343 22.9259 7.96872 22.7372 8.03163Z" fill="black"/>
</svg>
