<svg width="25" height="24" viewBox="0 0 25 24" fill="none" xmlns="http://www.w3.org/2000/svg">
<path d="M12.28 2.25C10.3517 2.25 8.4666 2.82183 6.86322 3.89317C5.25984 4.96451 4.01016 6.48726 3.27221 8.26884C2.53425 10.0504 2.34117 12.0108 2.71738 13.9021C3.09358 15.7934 4.02218 17.5307 5.38574 18.8943C6.7493 20.2579 8.48659 21.1865 10.3779 21.5627C12.2692 21.9389 14.2296 21.7458 16.0112 21.0078C17.7928 20.2699 19.3155 19.0202 20.3869 17.4168C21.4582 15.8134 22.03 13.9284 22.03 12C22.0273 9.41498 20.9992 6.93661 19.1713 5.10872C17.3434 3.28084 14.8651 2.25273 12.28 2.25ZM12.28 20.25C10.6483 20.25 9.05328 19.7661 7.69658 18.8596C6.33987 17.9531 5.28245 16.6646 4.65803 15.1571C4.0336 13.6496 3.87023 11.9908 4.18856 10.3905C4.50688 8.79016 5.29262 7.32015 6.4464 6.16637C7.60019 5.01259 9.0702 4.22685 10.6705 3.90852C12.2709 3.59019 13.9297 3.75357 15.4372 4.37799C16.9447 5.00242 18.2331 6.05984 19.1397 7.41655C20.0462 8.77325 20.53 10.3683 20.53 12C20.5276 14.1873 19.6576 16.2843 18.1109 17.8309C16.5643 19.3775 14.4673 20.2475 12.28 20.25ZM16.03 13.875C16.03 14.5712 15.7535 15.2389 15.2612 15.7312C14.7689 16.2234 14.1012 16.5 13.405 16.5H13.03V17.25C13.03 17.4489 12.951 17.6397 12.8104 17.7803C12.6697 17.921 12.4789 18 12.28 18C12.0811 18 11.8904 17.921 11.7497 17.7803C11.6091 17.6397 11.53 17.4489 11.53 17.25V16.5H10.03C9.83112 16.5 9.64036 16.421 9.4997 16.2803C9.35905 16.1397 9.28003 15.9489 9.28003 15.75C9.28003 15.5511 9.35905 15.3603 9.4997 15.2197C9.64036 15.079 9.83112 15 10.03 15H13.405C13.7034 15 13.9895 14.8815 14.2005 14.6705C14.4115 14.4595 14.53 14.1734 14.53 13.875C14.53 13.5766 14.4115 13.2905 14.2005 13.0795C13.9895 12.8685 13.7034 12.75 13.405 12.75H11.155C10.4588 12.75 9.79116 12.4734 9.29888 11.9812C8.8066 11.4889 8.53003 10.8212 8.53003 10.125C8.53003 9.42881 8.8066 8.76113 9.29888 8.26884C9.79116 7.77656 10.4588 7.5 11.155 7.5H11.53V6.75C11.53 6.55109 11.6091 6.36032 11.7497 6.21967C11.8904 6.07902 12.0811 6 12.28 6C12.4789 6 12.6697 6.07902 12.8104 6.21967C12.951 6.36032 13.03 6.55109 13.03 6.75V7.5H14.53C14.7289 7.5 14.9197 7.57902 15.0604 7.71967C15.201 7.86032 15.28 8.05109 15.28 8.25C15.28 8.44891 15.201 8.63968 15.0604 8.78033C14.9197 8.92098 14.7289 9 14.53 9H11.155C10.8567 9 10.5705 9.11853 10.3595 9.3295C10.1486 9.54048 10.03 9.82663 10.03 10.125C10.03 10.4234 10.1486 10.7095 10.3595 10.9205C10.5705 11.1315 10.8567 11.25 11.155 11.25H13.405C14.1012 11.25 14.7689 11.5266 15.2612 12.0188C15.7535 12.5111 16.03 13.1788 16.03 13.875Z" fill="black"/>
</svg>
