<svg width="24" height="18" viewBox="0 0 24 18" fill="none" xmlns="http://www.w3.org/2000/svg">
<path d="M5.05499 0.245566C4.98913 0.171322 4.90918 0.110889 4.81979 0.0677692C4.7304 0.0246495 4.63334 -0.000299195 4.53423 -0.00563084C4.43513 -0.0109625 4.33595 0.00342888 4.24245 0.0367093C4.14895 0.0699896 4.06298 0.121497 3.98953 0.188246C3.91608 0.254995 3.85661 0.335659 3.81457 0.425561C3.77252 0.515463 3.74874 0.612816 3.7446 0.711978C3.74045 0.811139 3.75603 0.910137 3.79043 1.00323C3.82483 1.09633 3.87737 1.18167 3.94499 1.25432L5.74874 3.239C2.34374 5.32869 0.879366 8.54994 0.814679 8.69619C0.772035 8.79211 0.75 8.89591 0.75 9.00088C0.75 9.10585 0.772035 9.20965 0.814679 9.30556C0.847491 9.37963 1.64155 11.1403 3.40687 12.9056C5.75905 15.2568 8.72999 16.4999 12 16.4999C13.6806 16.5095 15.3442 16.1635 16.8816 15.4846L18.9441 17.7543C19.0099 17.8286 19.0899 17.889 19.1793 17.9321C19.2686 17.9752 19.3657 18.0002 19.4648 18.0055C19.5639 18.0108 19.6631 17.9965 19.7566 17.9632C19.8501 17.9299 19.9361 17.8784 20.0095 17.8116C20.083 17.7449 20.1424 17.6642 20.1845 17.5743C20.2265 17.4844 20.2503 17.3871 20.2544 17.2879C20.2586 17.1887 20.243 17.0897 20.2086 16.9966C20.1742 16.9036 20.1217 16.8182 20.0541 16.7456L5.05499 0.245566ZM9.49218 7.35557L13.3987 11.654C12.8105 11.9635 12.136 12.0688 11.4814 11.9535C10.8268 11.8381 10.229 11.5086 9.78189 11.0167C9.33481 10.5248 9.06377 9.8983 9.01134 9.23564C8.9589 8.57299 9.12803 7.91168 9.49218 7.35557ZM12 14.9999C9.11437 14.9999 6.59343 13.9509 4.50655 11.8828C3.64997 11.0315 2.92145 10.0604 2.34374 8.99994C2.78343 8.17588 4.18687 5.86963 6.7828 4.37057L8.4703 6.22213C7.81699 7.05885 7.48052 8.0996 7.52036 9.16041C7.56021 10.2212 7.97379 11.2338 8.68802 12.0192C9.40225 12.8045 10.3711 13.3121 11.4234 13.4522C12.4757 13.5923 13.5436 13.3558 14.4384 12.7846L15.8194 14.3034C14.6006 14.771 13.3053 15.0072 12 14.9999ZM12.5625 6.05338C12.3671 6.01608 12.1944 5.90268 12.0826 5.73812C11.9708 5.57355 11.9289 5.37131 11.9662 5.17588C12.0035 4.98045 12.1169 4.80784 12.2815 4.69602C12.4461 4.5842 12.6483 4.54233 12.8437 4.57963C13.7996 4.76494 14.67 5.2543 15.325 5.97471C15.98 6.69512 16.3846 7.60798 16.4784 8.57713C16.4969 8.77517 16.436 8.97246 16.3091 9.12559C16.1822 9.27872 15.9996 9.37516 15.8016 9.39369C15.7781 9.39507 15.7547 9.39507 15.7312 9.39369C15.5438 9.39449 15.3628 9.32507 15.224 9.19909C15.0852 9.07312 14.9986 8.89972 14.9812 8.71307C14.9181 8.06844 14.6486 7.46139 14.2128 6.9822C13.7771 6.50301 13.1982 6.17725 12.5625 6.05338ZM23.1825 9.30556C23.1431 9.39369 22.1934 11.4965 20.055 13.4118C19.9819 13.4793 19.8961 13.5317 19.8027 13.5657C19.7092 13.5998 19.6099 13.6149 19.5105 13.6102C19.4111 13.6055 19.3136 13.581 19.2238 13.5383C19.1339 13.4956 19.0535 13.4354 18.9871 13.3612C18.9208 13.2871 18.8698 13.2005 18.8373 13.1065C18.8047 13.0125 18.7912 12.9129 18.7975 12.8136C18.8037 12.7143 18.8297 12.6173 18.8739 12.5281C18.918 12.439 18.9795 12.3595 19.0547 12.2943C20.1038 11.3518 20.9851 10.2378 21.6609 8.99994C21.0819 7.93848 20.3518 6.96677 19.4934 6.11525C17.4066 4.049 14.8856 2.99994 12 2.99994C11.392 2.9992 10.7849 3.04843 10.185 3.14713C10.0874 3.16438 9.98741 3.16213 9.89073 3.14051C9.79404 3.11889 9.70259 3.07833 9.62167 3.02117C9.54074 2.96401 9.47195 2.89138 9.41925 2.80747C9.36656 2.72357 9.33101 2.63006 9.31466 2.53234C9.29832 2.43463 9.30149 2.33464 9.32401 2.23815C9.34652 2.14167 9.38793 2.0506 9.44584 1.97021C9.50375 1.88982 9.57702 1.8217 9.6614 1.76979C9.74579 1.71787 9.83963 1.6832 9.93749 1.66775C10.6192 1.55519 11.309 1.49906 12 1.49994C15.27 1.49994 18.2409 2.74307 20.5931 5.09525C22.3584 6.86057 23.1525 8.62213 23.1853 8.69619C23.2279 8.79211 23.25 8.89591 23.25 9.00088C23.25 9.10585 23.2279 9.20965 23.1853 9.30556H23.1825Z" fill="black"/>
</svg>
