<svg width="24" height="24" viewBox="0 0 24 24" fill="none" xmlns="http://www.w3.org/2000/svg">
<path d="M20.25 6.74997H16.9613C16.9978 6.71903 17.0353 6.68903 17.0709 6.65622C17.3557 6.40326 17.5851 6.09427 17.745 5.74858C17.9049 5.40289 17.9917 5.02793 18 4.64715C18.0123 4.2306 17.9394 3.81592 17.7856 3.42858C17.6319 3.04124 17.4006 2.68941 17.106 2.39468C16.8113 2.09996 16.4596 1.86857 16.0723 1.71471C15.685 1.56085 15.2703 1.48778 14.8538 1.49997C14.4728 1.50817 14.0977 1.59492 13.7518 1.75479C13.406 1.91465 13.0968 2.14419 12.8438 2.42903C12.4936 2.83487 12.2089 3.29288 12 3.78653C11.7911 3.29288 11.5064 2.83487 11.1562 2.42903C10.9032 2.14419 10.594 1.91465 10.2482 1.75479C9.90232 1.59492 9.52718 1.50817 9.14625 1.49997C8.72969 1.48778 8.31503 1.56085 7.92774 1.71471C7.54044 1.86857 7.18868 2.09996 6.89405 2.39468C6.59941 2.68941 6.36812 3.04124 6.21438 3.42858C6.06064 3.81592 5.98768 4.2306 6 4.64715C6.00833 5.02793 6.09514 5.40289 6.255 5.74858C6.41486 6.09427 6.64434 6.40326 6.92906 6.65622C6.96469 6.68715 7.00219 6.71715 7.03875 6.74997H3.75C3.35218 6.74997 2.97064 6.908 2.68934 7.18931C2.40804 7.47061 2.25 7.85214 2.25 8.24997V11.25C2.25 11.6478 2.40804 12.0293 2.68934 12.3106C2.97064 12.5919 3.35218 12.75 3.75 12.75V18.75C3.75 19.1478 3.90804 19.5293 4.18934 19.8106C4.47064 20.0919 4.85218 20.25 5.25 20.25H18.75C19.1478 20.25 19.5294 20.0919 19.8107 19.8106C20.092 19.5293 20.25 19.1478 20.25 18.75V12.75C20.6478 12.75 21.0294 12.5919 21.3107 12.3106C21.592 12.0293 21.75 11.6478 21.75 11.25V8.24997C21.75 7.85214 21.592 7.47061 21.3107 7.18931C21.0294 6.908 20.6478 6.74997 20.25 6.74997ZM13.9688 3.42278C14.0875 3.29164 14.2321 3.18647 14.3934 3.11387C14.5547 3.04127 14.7293 3.00281 14.9062 3.0009H14.9522C15.1595 3.0022 15.3645 3.04487 15.5552 3.12641C15.7458 3.20795 15.9183 3.32672 16.0624 3.47576C16.2066 3.6248 16.3195 3.80112 16.3947 3.99438C16.4698 4.18763 16.5056 4.39394 16.5 4.60122C16.4981 4.77812 16.4596 4.95272 16.387 5.11405C16.3144 5.27538 16.2093 5.41997 16.0781 5.53872C15.1884 6.32622 13.7119 6.60372 12.7969 6.70122C12.9094 5.7084 13.2188 4.26559 13.9688 3.42278ZM7.96031 3.45653C8.25088 3.16599 8.64441 3.00191 9.05531 2.99997H9.10125C9.27815 3.00187 9.45275 3.04034 9.61409 3.11293C9.77542 3.18553 9.92 3.2907 10.0388 3.42184C10.8253 4.31059 11.1028 5.78434 11.2003 6.69559C10.2891 6.60184 8.81531 6.32059 7.92656 5.53403C7.79543 5.41528 7.69026 5.2707 7.61766 5.10936C7.54506 4.94803 7.5066 4.77343 7.50469 4.59653C7.49887 4.38581 7.53593 4.17611 7.61361 3.98014C7.69128 3.78418 7.80796 3.60604 7.95656 3.45653H7.96031ZM3.75 8.24997H11.25V11.25H3.75V8.24997ZM5.25 12.75H11.25V18.75H5.25V12.75ZM18.75 18.75H12.75V12.75H18.75V18.75ZM20.25 11.25H12.75V8.24997H20.25V11.25Z" fill="black"/>
</svg>
