<?xml version="1.0" encoding="UTF-8"?>
<svg id="Layer_1" data-name="Layer 1" xmlns="http://www.w3.org/2000/svg" viewBox="0 0 479.34 512">
  <path d="M224.23,0h30.88c0,28.67.01,57.35,0,86.02-10.29.02-20.57.02-30.86,0-.02-28.67,0-57.35,0-86.02Z"/>
  <path d="M90.96,68c7.26-7.29,14.53-14.57,21.81-21.83,20.28,20.27,40.56,40.55,60.83,60.83-7.27,7.29-14.55,14.56-21.83,21.83-20.28-20.26-40.55-40.54-60.81-60.83Z"/>
  <path d="M305.74,107c20.27-20.29,40.55-40.56,60.83-60.83,7.28,7.26,14.55,14.54,21.81,21.83-20.26,20.29-40.53,40.57-60.81,60.83-7.28-7.27-14.56-14.55-21.83-21.83Z"/>
  <path d="M154.2,257.62c9.02-37.25,18.02-74.5,27.03-111.74,38.96-.01,77.92-.01,116.87,0,9.02,37.25,18.02,74.49,27.04,111.73,15.42.03,30.85,0,46.27.02,9.05,37.24,18.02,74.5,27.09,111.74,15.41.02,30.83-.02,46.26.02,11.56,47.53,22.96,95.1,34.58,142.61H0c11.63-47.53,23.02-95.12,34.6-142.66,15.42.07,30.83.02,46.25.03,9.06-37.24,18.03-74.5,27.07-111.74,15.43-.02,30.86.01,46.28-.01ZM185.96,257.62c35.81.01,71.61.01,107.42-.01-6.53-26.94-13.03-53.9-19.6-80.84-22.74-.04-45.48-.01-68.22-.01-6.56,26.94-13.07,53.9-19.6,80.86ZM132.21,288.5c-6.54,26.95-13.08,53.91-19.59,80.87,35.8,0,71.61.01,107.41-.01-6.49-26.95-13.03-53.9-19.54-80.85-22.76-.02-45.52,0-68.28-.01ZM232.24,288.51c2.62,9.91,4.38,20.11,7.58,29.82,2.54-9.91,4.85-19.88,7.28-29.82-4.95-.02-9.91-.02-14.86,0ZM278.85,288.51c-6.51,26.95-13.05,53.9-19.54,80.85,35.8.01,71.6.04,107.41,0-6.52-26.95-13.05-53.9-19.59-80.85-22.76,0-45.52-.01-68.28.01ZM58.86,400.25c-6.52,26.96-13.05,53.91-19.55,80.86,35.79.02,71.59.02,107.38,0-6.5-26.95-13.04-53.9-19.54-80.85-22.77-.02-45.53,0-68.29-.01ZM158.89,400.26c2.48,10.23,4.95,20.46,7.44,30.69,2.47-10.23,4.97-20.46,7.42-30.7-4.95,0-9.91-.01-14.86.01ZM205.56,400.25c-6.54,26.95-13.1,53.9-19.58,80.86,35.79.02,71.59.02,107.38,0-6.48-26.96-13.04-53.91-19.58-80.85-22.74-.02-45.48-.01-68.22-.01ZM305.59,400.25c2.45,10.24,4.94,20.46,7.42,30.69,2.49-10.23,4.96-20.46,7.44-30.68-4.96-.02-9.91-.01-14.86-.01ZM352.2,400.26c-6.51,26.95-13.05,53.9-19.55,80.85,35.79.02,71.59.02,107.38,0-6.5-26.96-13.03-53.91-19.55-80.86-22.76.01-45.52-.01-68.28.01Z"/>
  <path d="M44.77,179.47c28.68-.01,57.35,0,86.03-.02-.01,10.3.01,20.59-.01,30.89-28.68.01-57.35.01-86.03,0,0-10.29-.01-20.58.01-30.87Z"/>
  <path d="M348.66,179.42c28.63.11,57.27.01,85.91.05.02,10.29.01,20.58,0,30.87-28.67.01-57.34.01-86.02,0,.05-10.31-.15-20.62.11-30.92Z"/>
</svg>