<svg width="25" height="24" viewBox="0 0 25 24" fill="none" xmlns="http://www.w3.org/2000/svg">
<g clip-path="url(#clip0_1034_1941)">
<path d="M23.8825 8.33812L12.6325 2.33812C12.524 2.28034 12.403 2.25012 12.28 2.25012C12.1571 2.25012 12.0361 2.28034 11.9275 2.33812L0.677539 8.33812C0.557543 8.40207 0.45719 8.49744 0.387214 8.61403C0.317238 8.73061 0.280273 8.86402 0.280273 9C0.280273 9.13597 0.317238 9.26938 0.387214 9.38597C0.45719 9.50255 0.557543 9.59792 0.677539 9.66187L3.28004 11.0503V15.5897C3.27926 15.9581 3.41484 16.3137 3.66066 16.5881C4.88879 17.9559 7.64035 20.25 12.28 20.25C13.8184 20.2627 15.3453 19.9841 16.78 19.4287V22.5C16.78 22.6989 16.8591 22.8897 16.9997 23.0303C17.1404 23.171 17.3311 23.25 17.53 23.25C17.729 23.25 17.9197 23.171 18.0604 23.0303C18.201 22.8897 18.28 22.6989 18.28 22.5V18.7041C19.258 18.1395 20.1418 17.4256 20.8994 16.5881C21.1452 16.3137 21.2808 15.9581 21.28 15.5897V11.0503L23.8825 9.66187C24.0025 9.59792 24.1029 9.50255 24.1729 9.38597C24.2428 9.26938 24.2798 9.13597 24.2798 9C24.2798 8.86402 24.2428 8.73061 24.1729 8.61403C24.1029 8.49744 24.0025 8.40207 23.8825 8.33812ZM12.28 18.75C8.22348 18.75 5.83754 16.7681 4.78004 15.5897V11.85L11.9275 15.6619C12.0361 15.7197 12.1571 15.7499 12.28 15.7499C12.403 15.7499 12.524 15.7197 12.6325 15.6619L16.78 13.4503V17.7947C15.5988 18.3459 14.11 18.75 12.28 18.75ZM19.78 15.5859C19.3305 16.0848 18.8274 16.5328 18.28 16.9219V12.6497L19.78 11.85V15.5859ZM17.905 11.1506L17.8844 11.1384L12.6344 8.33812C12.4593 8.24866 12.256 8.23158 12.0683 8.29056C11.8807 8.34955 11.7237 8.47989 11.6313 8.65349C11.5388 8.82709 11.5183 9.03006 11.574 9.21868C11.6298 9.40729 11.7574 9.56645 11.9294 9.66187L16.3113 12L12.28 14.1497L2.62379 9L12.28 3.85031L21.9363 9L17.905 11.1506Z" fill="black"/>
</g>
<defs>
<clipPath id="clip0_1034_1941">
<rect width="24" height="24" fill="white" transform="translate(0.280029)"/>
</clipPath>
</defs>
</svg>
