<svg width="25" height="24" viewBox="0 0 25 24" fill="none" xmlns="http://www.w3.org/2000/svg">
<g clip-path="url(#clip0_922_19)">
<path d="M21.8735 13.2244C21.5944 13.0096 21.2695 12.8622 20.9242 12.7934C20.5788 12.7246 20.2223 12.7364 19.8822 12.8278L15.9597 13.7297C16.051 13.3442 16.0538 12.943 15.968 12.5563C15.8821 12.1695 15.7099 11.8072 15.4641 11.4965C15.2183 11.1858 14.9054 10.9347 14.5488 10.7622C14.1922 10.5896 13.8012 10.5 13.405 10.5H8.7119C8.31778 10.499 7.92736 10.5761 7.56322 10.7269C7.19907 10.8777 6.86841 11.0991 6.59034 11.3784L4.46972 13.5H1.78003C1.3822 13.5 1.00067 13.658 0.719369 13.9393C0.438065 14.2206 0.280029 14.6022 0.280029 15L0.280029 18.75C0.280029 19.1478 0.438065 19.5294 0.719369 19.8107C1.00067 20.092 1.3822 20.25 1.78003 20.25H11.53C11.5914 20.25 11.6524 20.2425 11.7119 20.2275L17.7119 18.7275C17.7501 18.7184 17.7875 18.7058 17.8235 18.69L21.4675 17.1394L21.5088 17.1206C21.859 16.9456 22.1589 16.6843 22.3802 16.3614C22.6016 16.0385 22.7371 15.6645 22.7739 15.2747C22.8108 14.8849 22.7478 14.4922 22.5909 14.1335C22.434 13.7748 22.1884 13.4619 21.8772 13.2244H21.8735ZM1.78003 15H4.03003V18.75H1.78003V15ZM20.8516 15.7697L17.2891 17.2866L11.4363 18.75H5.53003V14.5603L7.65159 12.4397C7.79037 12.2998 7.95558 12.1889 8.13761 12.1134C8.31963 12.0379 8.51485 11.9994 8.7119 12H13.405C13.7034 12 13.9895 12.1185 14.2005 12.3295C14.4115 12.5405 14.53 12.8266 14.53 13.125C14.53 13.4234 14.4115 13.7095 14.2005 13.9205C13.9895 14.1315 13.7034 14.25 13.405 14.25H10.78C10.5811 14.25 10.3904 14.329 10.2497 14.4697C10.109 14.6103 10.03 14.8011 10.03 15C10.03 15.1989 10.109 15.3897 10.2497 15.5303C10.3904 15.671 10.5811 15.75 10.78 15.75H13.78C13.8365 15.7498 13.8927 15.7436 13.9478 15.7313L20.2291 14.2866L20.2582 14.2791C20.4499 14.2258 20.6546 14.2454 20.8328 14.334C21.0109 14.4226 21.1501 14.5739 21.2234 14.7589C21.2967 14.9439 21.299 15.1495 21.2298 15.3361C21.1607 15.5227 21.0249 15.6771 20.8488 15.7697H20.8516ZM15.655 9C15.8403 9.00021 16.0253 8.98516 16.2082 8.955C16.4138 9.56582 16.79 10.105 17.2924 10.5088C17.7948 10.9125 18.4022 11.164 19.043 11.2335C19.6837 11.3029 20.331 11.1875 20.9082 10.9008C21.4854 10.614 21.9685 10.168 22.3002 9.61547C22.632 9.06291 22.7986 8.42691 22.7804 7.78266C22.7622 7.1384 22.5598 6.51284 22.1973 5.97993C21.8349 5.44703 21.3273 5.02905 20.7348 4.77543C20.1423 4.52181 19.4896 4.44315 18.8538 4.54875C18.6558 3.96023 18.2992 3.43775 17.8234 3.03879C17.3476 2.63984 16.771 2.37988 16.1569 2.28754C15.5429 2.19519 14.9153 2.27403 14.3432 2.51537C13.7711 2.75672 13.2766 3.15123 12.9143 3.65547C12.5519 4.15971 12.3357 4.75414 12.2894 5.37335C12.2431 5.99256 12.3685 6.61254 12.6518 7.16506C12.9352 7.71759 13.3655 8.18123 13.8953 8.50497C14.4252 8.82872 15.0341 9.00001 15.655 9ZM21.28 7.875C21.28 8.24584 21.1701 8.60835 20.964 8.9167C20.758 9.22504 20.4652 9.46536 20.1226 9.60728C19.7799 9.74919 19.4029 9.78632 19.0392 9.71397C18.6755 9.64163 18.3414 9.46305 18.0792 9.20083C17.817 8.9386 17.6384 8.60451 17.5661 8.2408C17.4937 7.87708 17.5308 7.50008 17.6728 7.15747C17.8147 6.81486 18.055 6.52202 18.3633 6.316C18.6717 6.10997 19.0342 6 19.405 6C19.9023 6 20.3792 6.19755 20.7309 6.54918C21.0825 6.90081 21.28 7.37772 21.28 7.875ZM15.655 3.75C16.0641 3.75021 16.4618 3.88416 16.7876 4.13145C17.1135 4.37874 17.3495 4.72579 17.4597 5.11969C17.0756 5.38997 16.7521 5.73744 16.51 6.13989C16.2678 6.54234 16.1123 6.9909 16.0535 7.45688C15.9225 7.48515 15.789 7.49961 15.655 7.5C15.1577 7.5 14.6808 7.30246 14.3292 6.95083C13.9776 6.5992 13.78 6.12228 13.78 5.625C13.78 5.12772 13.9776 4.65081 14.3292 4.29918C14.6808 3.94755 15.1577 3.75 15.655 3.75Z" fill="black"/>
</g>
<defs>
<clipPath id="clip0_922_19">
<rect width="24" height="24" fill="white" transform="translate(0.280029)"/>
</clipPath>
</defs>
</svg>
