<svg width="20" height="22" viewBox="0 0 20 22" fill="none" xmlns="http://www.w3.org/2000/svg">
<path d="M19.75 10.0001V17.5001C19.75 18.4946 19.3549 19.4484 18.6517 20.1517C17.9484 20.855 16.9946 21.2501 16 21.2501H10.75C10.5511 21.2501 10.3603 21.171 10.2197 21.0304C10.079 20.8897 10 20.699 10 20.5001C10 20.3011 10.079 20.1104 10.2197 19.9697C10.3603 19.8291 10.5511 19.7501 10.75 19.7501H16C16.5967 19.7501 17.169 19.513 17.591 19.091C18.0129 18.6691 18.25 18.0968 18.25 17.5001H16C15.4033 17.5001 14.831 17.263 14.409 16.841C13.9871 16.4191 13.75 15.8468 13.75 15.2501V11.5001C13.75 10.9033 13.9871 10.331 14.409 9.90907C14.831 9.48711 15.4033 9.25006 16 9.25006H18.2172C18.0753 7.69094 17.4926 6.20438 16.5374 4.96404C15.5821 3.72369 14.2936 2.78075 12.8225 2.24537C11.3513 1.70998 9.75813 1.60425 8.22911 1.94053C6.70008 2.2768 5.2983 3.0412 4.1875 4.14443C2.80624 5.50747 1.9543 7.31701 1.78375 9.25006H4C4.59674 9.25006 5.16903 9.48711 5.59099 9.90907C6.01295 10.331 6.25 10.9033 6.25 11.5001V15.2501C6.25 15.8468 6.01295 16.4191 5.59099 16.841C5.16903 17.263 4.59674 17.5001 4 17.5001H2.5C1.90326 17.5001 1.33097 17.263 0.90901 16.841C0.487053 16.4191 0.25 15.8468 0.25 15.2501V10.0001C0.252103 8.06871 0.827147 6.1814 1.90235 4.57702C2.97755 2.97264 4.50456 1.72331 6.29012 0.987165C8.07567 0.251023 10.0395 0.0611629 11.933 0.441617C13.8265 0.822072 15.5646 1.75574 16.9272 3.12443C17.8268 4.02847 18.5393 5.10114 19.0237 6.28098C19.5081 7.46083 19.7549 8.72466 19.75 10.0001Z" fill="black"/>
</svg>
