<svg width="18" height="19" viewBox="0 0 18 19" fill="none" xmlns="http://www.w3.org/2000/svg">
<path d="M17.5603 8.18875L10.0603 0.688748C9.77905 0.407656 9.39766 0.249756 9.00001 0.249756C8.60236 0.249756 8.22097 0.407656 7.9397 0.688748L0.439697 8.18875C0.299732 8.32767 0.188783 8.49304 0.1133 8.67523C0.0378174 8.85742 -0.00069249 9.05279 9.42514e-06 9.25V18.25C9.42514e-06 18.4489 0.0790272 18.6397 0.219679 18.7803C0.360332 18.921 0.551097 19 0.750009 19H6.75001C6.94892 19 7.13969 18.921 7.28034 18.7803C7.42099 18.6397 7.50001 18.4489 7.50001 18.25V13H10.5V18.25C10.5 18.4489 10.579 18.6397 10.7197 18.7803C10.8603 18.921 11.0511 19 11.25 19H17.25C17.4489 19 17.6397 18.921 17.7803 18.7803C17.921 18.6397 18 18.4489 18 18.25V9.25C18.0007 9.05279 17.9622 8.85742 17.8867 8.67523C17.8112 8.49304 17.7003 8.32767 17.5603 8.18875ZM16.5 17.5H12V12.25C12 12.0511 11.921 11.8603 11.7803 11.7197C11.6397 11.579 11.4489 11.5 11.25 11.5H6.75001C6.5511 11.5 6.36033 11.579 6.21968 11.7197C6.07903 11.8603 6.00001 12.0511 6.00001 12.25V17.5H1.50001V9.25L9.00001 1.75L16.5 9.25V17.5Z" fill="black"/>
</svg>
