<svg width="25" height="24" viewBox="0 0 25 24" fill="none" xmlns="http://www.w3.org/2000/svg">
<path d="M12.9441 2.25C11.0157 2.25 9.13067 2.82183 7.52729 3.89317C5.92391 4.96451 4.67423 6.48726 3.93627 8.26884C3.19832 10.0504 3.00523 12.0108 3.38144 13.9021C3.75765 15.7934 4.68624 17.5307 6.04981 18.8943C7.41337 20.2579 9.15065 21.1865 11.042 21.5627C12.9333 21.9389 14.8937 21.7458 16.6753 21.0078C18.4568 20.2699 19.9796 19.0202 21.0509 17.4168C22.1223 15.8134 22.6941 13.9284 22.6941 12C22.6914 9.41498 21.6633 6.93661 19.8354 5.10872C18.0075 3.28084 15.5291 2.25273 12.9441 2.25ZM12.5691 6.75C12.7916 6.75 13.0091 6.81598 13.1941 6.9396C13.3791 7.06321 13.5233 7.23891 13.6085 7.44448C13.6936 7.65005 13.7159 7.87625 13.6725 8.09448C13.6291 8.31271 13.5219 8.51316 13.3646 8.6705C13.2073 8.82783 13.0068 8.93498 12.7886 8.97838C12.5703 9.02179 12.3441 8.99951 12.1386 8.91436C11.933 8.82922 11.7573 8.68502 11.6337 8.50002C11.5101 8.31501 11.4441 8.0975 11.4441 7.875C11.4441 7.57663 11.5626 7.29048 11.7736 7.0795C11.9846 6.86853 12.2707 6.75 12.5691 6.75ZM13.6941 17.25C13.2963 17.25 12.9147 17.092 12.6334 16.8107C12.3521 16.5294 12.1941 16.1478 12.1941 15.75V12C11.9952 12 11.8044 11.921 11.6638 11.7803C11.5231 11.6397 11.4441 11.4489 11.4441 11.25C11.4441 11.0511 11.5231 10.8603 11.6638 10.7197C11.8044 10.579 11.9952 10.5 12.1941 10.5C12.5919 10.5 12.9735 10.658 13.2548 10.9393C13.5361 11.2206 13.6941 11.6022 13.6941 12V15.75C13.893 15.75 14.0838 15.829 14.2244 15.9697C14.3651 16.1103 14.4441 16.3011 14.4441 16.5C14.4441 16.6989 14.3651 16.8897 14.2244 17.0303C14.0838 17.171 13.893 17.25 13.6941 17.25Z" fill="black"/>
</svg>
