<svg width="25" height="24" viewBox="0 0 25 24" fill="none" xmlns="http://www.w3.org/2000/svg">
<path d="M12.28 2.25C10.3517 2.25 8.4666 2.82183 6.86322 3.89317C5.25984 4.96451 4.01016 6.48726 3.27221 8.26884C2.53425 10.0504 2.34117 12.0108 2.71738 13.9021C3.09358 15.7934 4.02218 17.5307 5.38574 18.8943C6.7493 20.2579 8.48659 21.1865 10.3779 21.5627C12.2692 21.9389 14.2296 21.7458 16.0112 21.0078C17.7928 20.2699 19.3155 19.0202 20.3869 17.4168C21.4582 15.8134 22.03 13.9284 22.03 12C22.0273 9.41498 20.9992 6.93661 19.1713 5.10872C17.3434 3.28084 14.8651 2.25273 12.28 2.25ZM15.9457 14.6053C16.4883 13.8449 16.78 12.9341 16.78 12C16.78 11.0659 16.4883 10.155 15.9457 9.39469L18.6175 6.72375C19.8533 8.20427 20.5301 10.0715 20.5301 12C20.5301 13.9285 19.8533 15.7957 18.6175 17.2762L15.9457 14.6053ZM9.28003 12C9.28003 11.4067 9.45598 10.8266 9.78562 10.3333C10.1153 9.83994 10.5838 9.45542 11.132 9.22836C11.6802 9.0013 12.2834 8.94189 12.8653 9.05764C13.4472 9.1734 13.9818 9.45912 14.4014 9.87868C14.8209 10.2982 15.1066 10.8328 15.2224 11.4147C15.3381 11.9967 15.2787 12.5999 15.0517 13.1481C14.8246 13.6962 14.4401 14.1648 13.9467 14.4944C13.4534 14.8241 12.8734 15 12.28 15C11.4844 15 10.7213 14.6839 10.1587 14.1213C9.5961 13.5587 9.28003 12.7956 9.28003 12ZM17.5563 5.6625L14.8853 8.33438C14.125 7.79174 13.2142 7.50007 12.28 7.50007C11.3459 7.50007 10.4351 7.79174 9.67472 8.33438L7.00378 5.6625C8.4843 4.42678 10.3516 3.74991 12.28 3.74991C14.2085 3.74991 16.0758 4.42678 17.5563 5.6625ZM5.94253 6.72375L8.61441 9.39469C8.07178 10.155 7.7801 11.0659 7.7801 12C7.7801 12.9341 8.07178 13.8449 8.61441 14.6053L5.94253 17.2762C4.70681 15.7957 4.02994 13.9285 4.02994 12C4.02994 10.0715 4.70681 8.20427 5.94253 6.72375ZM7.00378 18.3375L9.67472 15.6656C10.4351 16.2083 11.3459 16.4999 12.28 16.4999C13.2142 16.4999 14.125 16.2083 14.8853 15.6656L17.5563 18.3375C16.0758 19.5732 14.2085 20.2501 12.28 20.2501C10.3516 20.2501 8.4843 19.5732 7.00378 18.3375Z" fill="black"/>
</svg>
