<svg width="24" height="24" viewBox="0 0 24 24" fill="none" xmlns="http://www.w3.org/2000/svg">
<path d="M22.5 8.27158C22.4624 9.5772 21.9255 10.8187 21 11.7403L17.7422 15C17.2677 15.4771 16.7033 15.8553 16.0816 16.1128C15.46 16.3703 14.7935 16.5019 14.1206 16.5H14.1159C13.4316 16.4995 12.7543 16.3619 12.124 16.0953C11.4938 15.8286 10.9233 15.4384 10.4464 14.9476C9.96952 14.4568 9.59581 13.8754 9.34738 13.2377C9.09894 12.6001 8.98082 11.9191 8.99999 11.235C9.00558 11.0361 9.08996 10.8476 9.23457 10.7109C9.37918 10.5742 9.57217 10.5005 9.77108 10.5061C9.96999 10.5117 10.1585 10.5961 10.2952 10.7407C10.4319 10.8853 10.5056 11.0783 10.5 11.2772C10.4863 11.7609 10.5698 12.2424 10.7454 12.6933C10.9209 13.1442 11.1851 13.5553 11.5223 13.9023C11.8595 14.2494 12.2628 14.5253 12.7085 14.7139C13.1541 14.9024 13.633 14.9997 14.1169 15C14.5925 15.0012 15.0637 14.9082 15.5032 14.7262C15.9426 14.5442 16.3416 14.2769 16.6772 13.9397L19.935 10.6819C20.6071 10.0013 20.9827 9.08238 20.9797 8.12581C20.9767 7.16924 20.5954 6.25271 19.919 5.57631C19.2426 4.89991 18.3261 4.51859 17.3695 4.5156C16.4129 4.5126 15.494 4.88818 14.8134 5.56033L13.7822 6.59158C13.6404 6.7263 13.4516 6.80029 13.256 6.79779C13.0604 6.79528 12.8736 6.71648 12.7353 6.57818C12.597 6.43988 12.5182 6.25302 12.5157 6.05745C12.5132 5.86188 12.5871 5.67307 12.7219 5.53127L13.7531 4.50002C14.2289 4.02408 14.7938 3.64653 15.4155 3.38895C16.0372 3.13136 16.7036 2.99878 17.3765 2.99878C18.0495 2.99878 18.7159 3.13136 19.3376 3.38895C19.9593 3.64653 20.5242 4.02408 21 4.50002C21.4928 4.99404 21.8799 5.58318 22.1378 6.23157C22.3957 6.87996 22.5189 7.57405 22.5 8.27158ZM10.2187 17.4056L9.18749 18.4369C8.85113 18.7755 8.45083 19.0438 8.00984 19.2263C7.56886 19.4089 7.09599 19.5019 6.61874 19.5C5.90277 19.4994 5.20304 19.2867 4.60795 18.8886C4.01287 18.4905 3.54913 17.9249 3.27534 17.2634C3.00155 16.6018 2.92999 15.874 3.06971 15.1718C3.20942 14.4695 3.55414 13.8245 4.0603 13.3181L7.31249 10.0603C7.82472 9.54539 8.47996 9.19637 9.1931 9.0586C9.90624 8.92083 10.6443 9.00068 11.3115 9.28777C11.9787 9.57486 12.5441 10.0559 12.9344 10.6685C13.3247 11.2811 13.5217 11.9968 13.5 12.7228C13.4944 12.9217 13.568 13.1147 13.7047 13.2593C13.8414 13.4039 14.03 13.4883 14.2289 13.4939C14.4278 13.4995 14.6208 13.4259 14.7654 13.2892C14.91 13.1525 14.9944 12.9639 15 12.765C15.018 12.0686 14.8943 11.3757 14.6365 10.7285C14.3786 10.0813 13.992 9.49327 13.5 9.00002C12.5392 8.03967 11.2364 7.50019 9.87795 7.50019C8.51952 7.50019 7.21669 8.03967 6.25592 9.00002L2.99999 12.2578C2.28395 12.9736 1.79616 13.8855 1.59825 14.8784C1.40033 15.8713 1.50119 16.9006 1.88806 17.8361C2.27494 18.7717 2.93047 19.5716 3.77182 20.1348C4.61317 20.6979 5.60257 20.999 6.61498 21C7.28799 21.002 7.95469 20.8704 8.5765 20.6129C9.19831 20.3554 9.76286 19.9772 10.2375 19.5L11.2687 18.4688C11.3901 18.3258 11.4535 18.1426 11.4465 17.9551C11.4394 17.7677 11.3624 17.5898 11.2306 17.4563C11.0988 17.3229 10.9218 17.2437 10.7345 17.2343C10.5472 17.2249 10.3632 17.2861 10.2187 17.4056Z" fill="#141414"/>
</svg>
