<svg width="24" height="24" viewBox="0 0 24 24" fill="none" xmlns="http://www.w3.org/2000/svg">
<path d="M22.8975 5.62499C22.7895 5.55761 22.6662 5.51881 22.5391 5.51225C22.412 5.50569 22.2853 5.53158 22.1709 5.58749C18.1462 7.55624 15.2719 6.63374 12.2334 5.66062C9.04594 4.63968 5.74125 3.58499 1.17563 5.81437C1.04806 5.87556 0.940404 5.97159 0.865091 6.09136C0.789777 6.21113 0.749878 6.34976 0.75 6.49124V17.7347C0.749982 17.8619 0.782343 17.9871 0.844035 18.0984C0.905728 18.2097 0.994725 18.3035 1.10265 18.3709C1.21058 18.4383 1.33388 18.4771 1.46096 18.4838C1.58804 18.4904 1.71471 18.4646 1.82906 18.4087C5.85375 16.44 8.72812 17.3625 11.7712 18.3356C13.575 18.9122 15.4125 19.5 17.49 19.5C19.0922 19.5 20.8397 19.1512 22.8253 18.1819C22.9514 18.1203 23.0577 18.0246 23.1322 17.9056C23.2066 17.7866 23.2461 17.6491 23.2463 17.5087V6.26531C23.2474 6.13772 23.2159 6.01196 23.1549 5.89992C23.0939 5.78787 23.0053 5.69325 22.8975 5.62499ZM21.75 17.0316C17.9438 18.735 15.1641 17.8462 12.2288 16.9078C10.425 16.3312 8.5875 15.7434 6.51 15.7434C5.05041 15.7505 3.60567 16.0369 2.25375 16.5872V6.96843C6.06 5.26499 8.83969 6.15374 11.775 7.09218C14.7103 8.03062 17.7319 8.99999 21.75 7.41468V17.0316ZM12 8.99999C11.4067 8.99999 10.8266 9.17594 10.3333 9.50559C9.83994 9.83523 9.45542 10.3038 9.22836 10.8519C9.0013 11.4001 8.94189 12.0033 9.05764 12.5853C9.1734 13.1672 9.45912 13.7018 9.87868 14.1213C10.2982 14.5409 10.8328 14.8266 11.4147 14.9424C11.9967 15.0581 12.5999 14.9987 13.1481 14.7716C13.6962 14.5446 14.1648 14.1601 14.4944 13.6667C14.8241 13.1734 15 12.5933 15 12C15 11.2043 14.6839 10.4413 14.1213 9.87867C13.5587 9.31606 12.7956 8.99999 12 8.99999ZM12 13.5C11.7033 13.5 11.4133 13.412 11.1666 13.2472C10.92 13.0824 10.7277 12.8481 10.6142 12.574C10.5006 12.2999 10.4709 11.9983 10.5288 11.7074C10.5867 11.4164 10.7296 11.1491 10.9393 10.9393C11.1491 10.7296 11.4164 10.5867 11.7074 10.5288C11.9983 10.4709 12.2999 10.5006 12.574 10.6142C12.8481 10.7277 13.0824 10.92 13.2472 11.1666C13.412 11.4133 13.5 11.7033 13.5 12C13.5 12.3978 13.342 12.7793 13.0607 13.0607C12.7794 13.342 12.3978 13.5 12 13.5ZM5.25 8.99999V13.5C5.25 13.6989 5.17098 13.8897 5.03033 14.0303C4.88968 14.171 4.69891 14.25 4.5 14.25C4.30109 14.25 4.11032 14.171 3.96967 14.0303C3.82902 13.8897 3.75 13.6989 3.75 13.5V8.99999C3.75 8.80108 3.82902 8.61032 3.96967 8.46966C4.11032 8.32901 4.30109 8.24999 4.5 8.24999C4.69891 8.24999 4.88968 8.32901 5.03033 8.46966C5.17098 8.61032 5.25 8.80108 5.25 8.99999ZM18.75 15V10.5C18.75 10.3011 18.829 10.1103 18.9697 9.96966C19.1103 9.82901 19.3011 9.74999 19.5 9.74999C19.6989 9.74999 19.8897 9.82901 20.0303 9.96966C20.171 10.1103 20.25 10.3011 20.25 10.5V15C20.25 15.1989 20.171 15.3897 20.0303 15.5303C19.8897 15.671 19.6989 15.75 19.5 15.75C19.3011 15.75 19.1103 15.671 18.9697 15.5303C18.829 15.3897 18.75 15.1989 18.75 15Z" fill="black"/>
</svg>
