<svg width="25" height="24" viewBox="0 0 25 24" fill="none" xmlns="http://www.w3.org/2000/svg">
<path d="M21.5912 2.68876C21.4026 2.50025 21.1671 2.36544 20.9091 2.29821C20.651 2.23098 20.3797 2.23376 20.1231 2.30626H20.109L2.11464 7.76625C1.82251 7.85045 1.56286 8.02142 1.3701 8.25651C1.17733 8.49161 1.06055 8.77973 1.03524 9.08269C1.00992 9.38565 1.07727 9.68916 1.22834 9.95298C1.37942 10.2168 1.6071 10.4285 1.8812 10.56L9.84245 14.4375L13.7143 22.3941C13.8348 22.6511 14.0262 22.8682 14.2661 23.0199C14.506 23.1716 14.7843 23.2514 15.0681 23.25C15.1112 23.25 15.1543 23.2481 15.1975 23.2444C15.5002 23.2199 15.7882 23.1034 16.0228 22.9105C16.2574 22.7176 16.4274 22.4576 16.51 22.1653L21.9662 4.17094C21.9662 4.16626 21.9662 4.16157 21.9662 4.15688C22.0396 3.90091 22.0436 3.63 21.9777 3.37199C21.9118 3.11397 21.7784 2.87815 21.5912 2.68876ZM15.0765 21.7359L15.0718 21.7491V21.7425L11.3162 14.0269L15.8162 9.52688C15.9509 9.38508 16.0249 9.19627 16.0224 9.0007C16.0199 8.80513 15.9411 8.61827 15.8028 8.47997C15.6645 8.34167 15.4776 8.26287 15.2821 8.26036C15.0865 8.25786 14.8977 8.33185 14.7559 8.46657L10.2559 12.9666L2.53745 9.21094H2.53089H2.54401L20.53 3.75001L15.0765 21.7359Z" fill="black"/>
</svg>
