<svg width="25" height="24" viewBox="0 0 25 24" fill="none" xmlns="http://www.w3.org/2000/svg">
<path d="M19.03 3H15.28C14.8822 3 14.5007 3.15804 14.2194 3.43934C13.9381 3.72064 13.78 4.10218 13.78 4.5V19.5C13.78 19.8978 13.9381 20.2794 14.2194 20.5607C14.5007 20.842 14.8822 21 15.28 21H19.03C19.4279 21 19.8094 20.842 20.0907 20.5607C20.372 20.2794 20.53 19.8978 20.53 19.5V4.5C20.53 4.10218 20.372 3.72064 20.0907 3.43934C19.8094 3.15804 19.4279 3 19.03 3ZM19.03 19.5H15.28V4.5H19.03V19.5ZM9.28003 3H5.53003C5.1322 3 4.75067 3.15804 4.46937 3.43934C4.18806 3.72064 4.03003 4.10218 4.03003 4.5V19.5C4.03003 19.8978 4.18806 20.2794 4.46937 20.5607C4.75067 20.842 5.1322 21 5.53003 21H9.28003C9.67785 21 10.0594 20.842 10.3407 20.5607C10.622 20.2794 10.78 19.8978 10.78 19.5V4.5C10.78 4.10218 10.622 3.72064 10.3407 3.43934C10.0594 3.15804 9.67785 3 9.28003 3ZM9.28003 19.5H5.53003V4.5H9.28003V19.5Z" fill="black"/>
</svg>
