<svg width="24" height="25" viewBox="0 0 24 25" fill="none" xmlns="http://www.w3.org/2000/svg">
<path d="M21.3103 7.44848L17.1216 3.2588C16.9823 3.11947 16.8169 3.00895 16.6349 2.93355C16.4529 2.85815 16.2578 2.81934 16.0608 2.81934C15.8638 2.81934 15.6687 2.85815 15.4867 2.93355C15.3047 3.00895 15.1393 3.11947 15 3.2588L3.43969 14.82C3.2998 14.9588 3.18889 15.124 3.11341 15.3061C3.03792 15.4881 2.99938 15.6833 3.00001 15.8804V20.07C3.00001 20.4679 3.15804 20.8494 3.43935 21.1307C3.72065 21.412 4.10218 21.57 4.50001 21.57H8.6897C8.88675 21.5707 9.08197 21.5321 9.26399 21.4566C9.44602 21.3812 9.61122 21.2703 9.75001 21.1304L21.3103 9.57005C21.4496 9.43075 21.5602 9.26538 21.6356 9.08337C21.711 8.90136 21.7498 8.70628 21.7498 8.50926C21.7498 8.31225 21.711 8.11717 21.6356 7.93516C21.5602 7.75315 21.4496 7.58778 21.3103 7.44848ZM8.6897 20.07H4.50001V15.8804L12.75 7.63036L16.9397 11.82L8.6897 20.07ZM18 10.7588L13.8103 6.57005L16.0603 4.32005L20.25 8.5088L18 10.7588Z" fill="black"/>
</svg>
