<svg width="25" height="24" viewBox="0 0 25 24" fill="none" xmlns="http://www.w3.org/2000/svg">
<path d="M22.0675 10.7334L8.56003 2.47029C8.3323 2.33084 8.07147 2.25471 7.80448 2.24977C7.53749 2.24482 7.27402 2.31124 7.04128 2.44217C6.81076 2.57106 6.61873 2.75902 6.48493 2.98673C6.35114 3.21445 6.28041 3.47368 6.28003 3.73779V20.2622C6.28177 20.6583 6.44075 21.0376 6.72203 21.3166C7.0033 21.5956 7.38386 21.7515 7.78003 21.75C8.05655 21.7499 8.3277 21.6736 8.56378 21.5297L22.0675 13.2665C22.2846 13.1342 22.464 12.9483 22.5885 12.7267C22.7129 12.5051 22.7783 12.2551 22.7783 12.0009C22.7783 11.7467 22.7129 11.4968 22.5885 11.2751C22.464 11.0535 22.2846 10.8676 22.0675 10.7353V10.7334ZM7.78003 20.2444V3.74998L21.2641 12L7.78003 20.2444Z" fill="black"/>
</svg>
