<?xml version="1.0" encoding="UTF-8"?>
<svg id="Layer_1" data-name="Layer 1" xmlns="http://www.w3.org/2000/svg" viewBox="0 0 381.96 447.63">
  <path d="M187.5.42c4.69-1.32,9.32.85,13.88,1.7,57.96,15.38,115.93,30.75,173.87,46.21,3.84.71,6.88,4.28,6.68,8.23.04,44.01.02,88.03,0,132.05-.27,15.31.3,30.68-1.66,45.91-3.93,33.12-16.48,64.88-34.6,92.76-17.96,27.66-41.08,51.74-66.89,72.17-20.56,16.21-42.8,30.33-66.4,41.69-5,2.35-9.97,5.07-15.48,6-6.17,1.02-12.69.53-18.46-1.97-51.08-22.69-96.48-58.01-130.93-102.03C17.7,305.8.84,258.41.27,210.63-.17,159.94.09,109.25,0,58.56c-.02-2.45.02-5.14,1.68-7.13,2.09-2.93,5.95-3.24,9.13-4.16,44.24-11.74,88.47-23.47,132.7-35.23,14.7-3.73,29.25-8.06,43.99-11.62ZM187.46,33.16c-50.02,13.39-100.08,26.64-150.09,40.07-3.52,1.04-5.7,4.76-5.42,8.34.05,38.03.02,76.07.21,114.11.16,11.03-.05,22.09,1.23,33.07,3.05,28.14,13.36,55.24,28.49,79.08,17.62,27.88,41.29,51.58,67.65,71.25,18.23,13.54,37.81,25.28,58.34,35,3.89,1.85,7.8-.67,11.22-2.35,29.47-14.24,56.63-33.12,80.46-55.53,22.79-21.63,42.42-47.03,55.12-75.89,9.7-21.86,15.02-45.68,15.13-69.62.43-42.36.1-84.73.1-127.09-.04-2.52.16-5.29-1.41-7.44-1.34-2.16-3.82-3.12-6.17-3.71-48.98-13.06-97.99-26.01-146.96-39.11-2.57-.79-5.31-1.05-7.9-.18Z"/>
  <path d="M184.65,50.46c2.82-.6,5.7-2.21,8.61-1.14,46.9,12.5,93.79,25,140.69,37.51-.02,41.27.2,82.53-.18,123.79-.57,37.29-14.04,74.16-37.48,103.16-15.32-24.63-39.51-43.56-67.19-52.31,16.24-9.04,29.29-23.93,35.24-41.62,10.66-30.6.26-67.25-25.16-87.43-26.51-21.49-67.51-22.02-94.63-1.34-26.67,19.81-37.84,57.47-26.92,88.75,5.9,17.72,19.02,32.51,35.17,41.66-27.65,8.76-51.8,27.68-67.13,52.27-23.22-28.69-36.67-65.13-37.38-102.05-.3-41.62-.28-83.24-.33-124.86,45.58-12.06,91.16-24.13,136.69-36.39Z"/>
  <path d="M187.39,132.09c14.75-1.14,29.74,3.71,41.38,12.77,12.5,9.64,21.14,24.2,23.37,39.85,2.19,14.29-.99,29.27-8.65,41.51-8.25,13.61-22.1,23.57-37.53,27.36-13.12,3.52-27.22,1.74-39.71-3.25-12.77-5.13-23.48-15.04-29.7-27.3-8.4-16.32-9.19-36.26-2.43-53.28,4.86-12.31,13.9-23.03,25.5-29.48,8.48-4.81,18.09-7.4,27.77-8.18Z"/>
  <path d="M154.3,277.85c25.21-9.1,53.83-8.41,78.54,2,22.15,9.17,40.9,26.06,52.54,47-26.08,29.89-58.64,53.87-94.36,71.02-35.76-17.07-68.05-41.34-94.41-70.94,12.45-22.63,33.34-40.44,57.69-49.08Z"/>
</svg>