<svg width="25" height="24" viewBox="0 0 25 24" fill="none" xmlns="http://www.w3.org/2000/svg">
<path d="M13.405 16.875C13.405 17.0975 13.3391 17.315 13.2154 17.5C13.0918 17.685 12.9161 17.8292 12.7106 17.9144C12.505 17.9995 12.2788 18.0218 12.0606 17.9784C11.8423 17.935 11.6419 17.8278 11.4845 17.6705C11.3272 17.5132 11.2201 17.3127 11.1767 17.0945C11.1332 16.8762 11.1555 16.65 11.2407 16.4445C11.3258 16.2389 11.47 16.0632 11.655 15.9396C11.84 15.816 12.0575 15.75 12.28 15.75C12.5784 15.75 12.8645 15.8685 13.0755 16.0795C13.2865 16.2905 13.405 16.5766 13.405 16.875ZM12.28 6.75C10.2119 6.75 8.53003 8.26406 8.53003 10.125V10.5C8.53003 10.6989 8.60905 10.8897 8.7497 11.0303C8.89036 11.171 9.08112 11.25 9.28003 11.25C9.47895 11.25 9.66971 11.171 9.81036 11.0303C9.95102 10.8897 10.03 10.6989 10.03 10.5V10.125C10.03 9.09375 11.0397 8.25 12.28 8.25C13.5203 8.25 14.53 9.09375 14.53 10.125C14.53 11.1562 13.5203 12 12.28 12C12.0811 12 11.8904 12.079 11.7497 12.2197C11.6091 12.3603 11.53 12.5511 11.53 12.75V13.5C11.53 13.6989 11.6091 13.8897 11.7497 14.0303C11.8904 14.171 12.0811 14.25 12.28 14.25C12.4789 14.25 12.6697 14.171 12.8104 14.0303C12.951 13.8897 13.03 13.6989 13.03 13.5V13.4325C14.74 13.1184 16.03 11.7544 16.03 10.125C16.03 8.26406 14.3482 6.75 12.28 6.75ZM22.03 12C22.03 13.9284 21.4582 15.8134 20.3869 17.4168C19.3155 19.0202 17.7928 20.2699 16.0112 21.0078C14.2296 21.7458 12.2692 21.9389 10.3779 21.5627C8.48659 21.1865 6.7493 20.2579 5.38574 18.8943C4.02218 17.5307 3.09358 15.7934 2.71738 13.9021C2.34117 12.0108 2.53425 10.0504 3.27221 8.26884C4.01016 6.48726 5.25984 4.96451 6.86322 3.89317C8.4666 2.82183 10.3517 2.25 12.28 2.25C14.8651 2.25273 17.3434 3.28084 19.1713 5.10872C20.9992 6.93661 22.0273 9.41498 22.03 12ZM20.53 12C20.53 10.3683 20.0462 8.77325 19.1397 7.41655C18.2331 6.05984 16.9447 5.00242 15.4372 4.37799C13.9297 3.75357 12.2709 3.59019 10.6705 3.90852C9.0702 4.22685 7.60019 5.01259 6.4464 6.16637C5.29262 7.32015 4.50688 8.79016 4.18856 10.3905C3.87023 11.9908 4.0336 13.6496 4.65803 15.1571C5.28245 16.6646 6.33987 17.9531 7.69658 18.8596C9.05328 19.7661 10.6483 20.25 12.28 20.25C14.4673 20.2475 16.5643 19.3775 18.1109 17.8309C19.6576 16.2843 20.5276 14.1873 20.53 12Z" fill="black"/>
</svg>
