<svg width="24" height="24" viewBox="0 0 24 24" fill="none" xmlns="http://www.w3.org/2000/svg">
<path d="M21.1744 9.63937C20.8209 9.27 20.4553 8.88938 20.3175 8.55469C20.19 8.24813 20.1825 7.74 20.175 7.24781C20.1609 6.33281 20.1459 5.29594 19.425 4.575C18.7041 3.85406 17.6672 3.83906 16.7522 3.825C16.26 3.8175 15.7519 3.81 15.4453 3.6825C15.1116 3.54469 14.73 3.17906 14.3606 2.82562C13.7137 2.20406 12.9788 1.5 12 1.5C11.0212 1.5 10.2872 2.20406 9.63937 2.82562C9.27 3.17906 8.88938 3.54469 8.55469 3.6825C8.25 3.81 7.74 3.8175 7.24781 3.825C6.33281 3.83906 5.29594 3.85406 4.575 4.575C3.85406 5.29594 3.84375 6.33281 3.825 7.24781C3.8175 7.74 3.81 8.24813 3.6825 8.55469C3.54469 8.88844 3.17906 9.27 2.82562 9.63937C2.20406 10.2872 1.5 11.0212 1.5 12C1.5 12.9788 2.20406 13.7128 2.82562 14.3606C3.17906 14.73 3.54469 15.1106 3.6825 15.4453C3.81 15.7519 3.8175 16.26 3.825 16.7522C3.83906 17.6672 3.85406 18.7041 4.575 19.425C5.29594 20.1459 6.33281 20.1609 7.24781 20.175C7.74 20.1825 8.24813 20.19 8.55469 20.3175C8.88844 20.4553 9.27 20.8209 9.63937 21.1744C10.2863 21.7959 11.0212 22.5 12 22.5C12.9788 22.5 13.7128 21.7959 14.3606 21.1744C14.73 20.8209 15.1106 20.4553 15.4453 20.3175C15.7519 20.19 16.26 20.1825 16.7522 20.175C17.6672 20.1609 18.7041 20.1459 19.425 19.425C20.1459 18.7041 20.1609 17.6672 20.175 16.7522C20.1825 16.26 20.19 15.7519 20.3175 15.4453C20.4553 15.1116 20.8209 14.73 21.1744 14.3606C21.7959 13.7128 22.5 12.9788 22.5 12C22.5 11.0212 21.7959 10.2872 21.1744 9.63937ZM20.0916 13.3228C19.6425 13.7916 19.1775 14.2763 18.9309 14.8716C18.6947 15.4434 18.6844 16.0969 18.675 16.7297C18.6656 17.3859 18.6553 18.0731 18.3638 18.3638C18.0722 18.6544 17.3897 18.6656 16.7297 18.675C16.0969 18.6844 15.4434 18.6947 14.8716 18.9309C14.2763 19.1775 13.7916 19.6425 13.3228 20.0916C12.8541 20.5406 12.375 21 12 21C11.625 21 11.1422 20.5387 10.6772 20.0916C10.2122 19.6444 9.72375 19.1775 9.12844 18.9309C8.55656 18.6947 7.90313 18.6844 7.27031 18.675C6.61406 18.6656 5.92688 18.6553 5.63625 18.3638C5.34562 18.0722 5.33437 17.3897 5.325 16.7297C5.31562 16.0969 5.30531 15.4434 5.06906 14.8716C4.8225 14.2763 4.3575 13.7916 3.90844 13.3228C3.45937 12.8541 3 12.375 3 12C3 11.625 3.46125 11.1431 3.90844 10.6772C4.35562 10.2113 4.8225 9.72375 5.06906 9.12844C5.30531 8.55656 5.31562 7.90313 5.325 7.27031C5.33437 6.61406 5.34469 5.92688 5.63625 5.63625C5.92781 5.34562 6.61031 5.33437 7.27031 5.325C7.90313 5.31562 8.55656 5.30531 9.12844 5.06906C9.72375 4.8225 10.2084 4.3575 10.6772 3.90844C11.1459 3.45937 11.625 3 12 3C12.375 3 12.8578 3.46125 13.3228 3.90844C13.7878 4.35562 14.2763 4.8225 14.8716 5.06906C15.4434 5.30531 16.0969 5.31562 16.7297 5.325C17.3859 5.33437 18.0731 5.34469 18.3638 5.63625C18.6544 5.92781 18.6656 6.61031 18.675 7.27031C18.6844 7.90313 18.6947 8.55656 18.9309 9.12844C19.1775 9.72375 19.6425 10.2084 20.0916 10.6772C20.5406 11.1459 21 11.625 21 12C21 12.375 20.5387 12.8569 20.0916 13.3228ZM11.25 9C11.25 8.55499 11.118 8.11998 10.8708 7.74997C10.6236 7.37996 10.2722 7.09157 9.86104 6.92127C9.4499 6.75097 8.9975 6.70642 8.56105 6.79323C8.12459 6.88005 7.72368 7.09434 7.40901 7.40901C7.09434 7.72368 6.88005 8.12459 6.79323 8.56105C6.70642 8.9975 6.75097 9.4499 6.92127 9.86104C7.09157 10.2722 7.37996 10.6236 7.74997 10.8708C8.11998 11.118 8.55499 11.25 9 11.25C9.59674 11.25 10.169 11.0129 10.591 10.591C11.0129 10.169 11.25 9.59674 11.25 9ZM8.25 9C8.25 8.85166 8.29399 8.70666 8.3764 8.58332C8.45881 8.45999 8.57594 8.36386 8.71299 8.30709C8.85003 8.25032 9.00083 8.23547 9.14632 8.26441C9.2918 8.29335 9.42544 8.36478 9.53033 8.46967C9.63522 8.57456 9.70665 8.7082 9.73559 8.85368C9.76453 8.99917 9.74968 9.14997 9.69291 9.28701C9.63614 9.42406 9.54002 9.54119 9.41668 9.6236C9.29334 9.70601 9.14834 9.75 9 9.75C8.80109 9.75 8.61032 9.67098 8.46967 9.53033C8.32902 9.38968 8.25 9.19891 8.25 9ZM15 12.75C14.555 12.75 14.12 12.882 13.75 13.1292C13.38 13.3764 13.0916 13.7278 12.9213 14.139C12.751 14.5501 12.7064 15.0025 12.7932 15.439C12.88 15.8754 13.0943 16.2763 13.409 16.591C13.7237 16.9057 14.1246 17.12 14.561 17.2068C14.9975 17.2936 15.4499 17.249 15.861 17.0787C16.2722 16.9084 16.6236 16.62 16.8708 16.25C17.118 15.88 17.25 15.445 17.25 15C17.25 14.4033 17.0129 13.831 16.591 13.409C16.169 12.9871 15.5967 12.75 15 12.75ZM15 15.75C14.8517 15.75 14.7067 15.706 14.5833 15.6236C14.46 15.5412 14.3639 15.4241 14.3071 15.287C14.2503 15.15 14.2355 14.9992 14.2644 14.8537C14.2934 14.7082 14.3648 14.5746 14.4697 14.4697C14.5746 14.3648 14.7082 14.2934 14.8537 14.2644C14.9992 14.2355 15.15 14.2503 15.287 14.3071C15.4241 14.3639 15.5412 14.46 15.6236 14.5833C15.706 14.7067 15.75 14.8517 15.75 15C15.75 15.1989 15.671 15.3897 15.5303 15.5303C15.3897 15.671 15.1989 15.75 15 15.75ZM16.2806 8.78063L8.78063 16.2806C8.71094 16.3503 8.62822 16.4056 8.53717 16.4433C8.44613 16.481 8.34855 16.5004 8.25 16.5004C8.15145 16.5004 8.05387 16.481 7.96283 16.4433C7.87178 16.4056 7.78906 16.3503 7.71937 16.2806C7.64969 16.2109 7.59442 16.1282 7.5567 16.0372C7.51899 15.9461 7.49958 15.8485 7.49958 15.75C7.49958 15.6515 7.51899 15.5539 7.5567 15.4628C7.59442 15.3718 7.64969 15.2891 7.71937 15.2194L15.2194 7.71937C15.2891 7.64969 15.3718 7.59442 15.4628 7.5567C15.5539 7.51899 15.6515 7.49958 15.75 7.49958C15.8485 7.49958 15.9461 7.51899 16.0372 7.5567C16.1282 7.59442 16.2109 7.64969 16.2806 7.71937C16.3503 7.78906 16.4056 7.87178 16.4433 7.96283C16.481 8.05387 16.5004 8.15145 16.5004 8.25C16.5004 8.34855 16.481 8.44613 16.4433 8.53717C16.4056 8.62822 16.3503 8.71094 16.2806 8.78063Z" fill="black"/>
</svg>
