<svg width="18" height="18" viewBox="0 0 18 18" fill="none" xmlns="http://www.w3.org/2000/svg">
<path d="M16.9422 16.0579L13.0305 12.1469C14.1643 10.7858 14.7297 9.03989 14.609 7.27251C14.4883 5.50512 13.6909 3.85229 12.3827 2.65785C11.0744 1.46341 9.35603 0.819317 7.58498 0.859567C5.81394 0.899817 4.12659 1.62131 2.87395 2.87395C1.62131 4.12659 0.899817 5.81394 0.859567 7.58498C0.819317 9.35603 1.46341 11.0744 2.65785 12.3827C3.85229 13.6909 5.50512 14.4883 7.27251 14.609C9.03989 14.7297 10.7858 14.1643 12.1469 13.0305L16.0579 16.9422C16.1159 17.0003 16.1849 17.0464 16.2607 17.0778C16.3366 17.1092 16.4179 17.1254 16.5001 17.1254C16.5822 17.1254 16.6635 17.1092 16.7394 17.0778C16.8152 17.0464 16.8842 17.0003 16.9422 16.9422C17.0003 16.8842 17.0464 16.8152 17.0778 16.7394C17.1092 16.6635 17.1254 16.5822 17.1254 16.5001C17.1254 16.4179 17.1092 16.3366 17.0778 16.2607C17.0464 16.1849 17.0003 16.1159 16.9422 16.0579ZM2.12506 7.75006C2.12506 6.63754 2.45496 5.55 3.07304 4.62497C3.69112 3.69995 4.56963 2.97898 5.59746 2.55323C6.6253 2.12749 7.7563 2.0161 8.84744 2.23314C9.93858 2.45018 10.9409 2.98591 11.7275 3.77258C12.5142 4.55925 13.0499 5.56153 13.267 6.65267C13.484 7.74382 13.3726 8.87482 12.9469 9.90265C12.5211 10.9305 11.8002 11.809 10.8751 12.4271C9.95011 13.0452 8.86258 13.3751 7.75006 13.3751C6.25872 13.3734 4.82894 12.7802 3.77441 11.7257C2.71987 10.6712 2.12671 9.24139 2.12506 7.75006Z" fill="#141414"/>
</svg>
