<svg width="20" height="20" viewBox="0 0 20 20" fill="none" xmlns="http://www.w3.org/2000/svg">
<path d="M13.75 8.50002C13.75 9.53837 13.4421 10.5534 12.8652 11.4168C12.2884 12.2801 11.4684 12.953 10.5091 13.3504C9.5498 13.7477 8.49421 13.8517 7.47581 13.6491C6.45741 13.4466 5.52194 12.9466 4.78772 12.2123C4.05349 11.4781 3.55348 10.5426 3.35091 9.52424C3.14833 8.50584 3.2523 7.45024 3.64966 6.49093C4.04702 5.53162 4.71993 4.71168 5.58329 4.1348C6.44664 3.55792 7.46168 3.25002 8.50003 3.25002C9.89242 3.25002 11.2278 3.80314 12.2123 4.78771C13.1969 5.77227 13.75 7.10763 13.75 8.50002ZM19.5307 19.5306C19.461 19.6004 19.3783 19.6557 19.2872 19.6934C19.1962 19.7312 19.0986 19.7506 19 19.7506C18.9015 19.7506 18.8039 19.7312 18.7128 19.6934C18.6218 19.6557 18.5391 19.6004 18.4694 19.5306L13.7763 14.8366C12.1442 16.1944 10.0515 16.8707 7.93346 16.7249C5.81543 16.5791 3.83514 15.6224 2.40449 14.0538C0.973836 12.4852 0.202966 10.4254 0.252223 8.30298C0.30148 6.18051 1.16707 4.15873 2.66895 2.65818C4.17083 1.15763 6.19337 0.293823 8.31588 0.246442C10.4384 0.199061 12.4975 0.971751 14.0648 2.40379C15.6322 3.83582 16.5871 5.81696 16.731 7.93512C16.8749 10.0533 16.1968 12.1454 14.8375 13.7763L19.5307 18.4694C19.6004 18.539 19.6557 18.6218 19.6934 18.7128C19.7312 18.8039 19.7506 18.9015 19.7506 19C19.7506 19.0986 19.7312 19.1962 19.6934 19.2872C19.6557 19.3783 19.6004 19.461 19.5307 19.5306ZM8.50003 15.25C9.83505 15.25 11.1401 14.8541 12.2501 14.1124C13.3602 13.3707 14.2253 12.3165 14.7362 11.0831C15.2471 9.84973 15.3808 8.49253 15.1203 7.18316C14.8599 5.87379 14.217 4.67105 13.273 3.72705C12.329 2.78304 11.1263 2.14017 9.81689 1.87972C8.50752 1.61927 7.15032 1.75294 5.91692 2.26383C4.68351 2.77472 3.62931 3.63989 2.88761 4.74992C2.14591 5.85995 1.75003 7.16499 1.75003 8.50002C1.75201 10.2896 2.46381 12.0054 3.72925 13.2708C4.99469 14.5362 6.71043 15.248 8.50003 15.25Z" fill="black"/>
</svg>
