<svg width="20" height="20" viewBox="0 0 20 20" fill="none" xmlns="http://www.w3.org/2000/svg">
<path d="M10 5.50004C9.11003 5.50004 8.24 5.76396 7.49998 6.25843C6.75996 6.7529 6.18318 7.4557 5.84259 8.27797C5.50199 9.10024 5.41288 10.005 5.58651 10.8779C5.76014 11.7509 6.18873 12.5527 6.81806 13.182C7.4474 13.8114 8.24922 14.2399 9.12214 14.4136C9.99505 14.5872 10.8999 14.4981 11.7221 14.1575C12.5444 13.8169 13.2472 13.2401 13.7417 12.5001C14.2361 11.7601 14.5 10.8901 14.5 10C14.4988 8.80695 14.0243 7.66308 13.1807 6.81943C12.337 5.97579 11.1931 5.50128 10 5.50004ZM10 13C9.4067 13 8.82668 12.8241 8.33333 12.4945C7.83999 12.1648 7.45547 11.6963 7.2284 11.1481C7.00134 10.5999 6.94193 9.99672 7.05769 9.41477C7.17344 8.83283 7.45917 8.29828 7.87872 7.87872C8.29828 7.45917 8.83283 7.17344 9.41477 7.05769C9.99672 6.94193 10.5999 7.00134 11.1481 7.2284C11.6963 7.45547 12.1648 7.83999 12.4945 8.33333C12.8241 8.82668 13 9.4067 13 10C13 10.7957 12.684 11.5588 12.1214 12.1214C11.5588 12.684 10.7957 13 10 13ZM18.25 10.2025C18.2538 10.0675 18.2538 9.93254 18.25 9.79754L19.6488 8.05004C19.7221 7.95829 19.7729 7.8506 19.797 7.73563C19.8211 7.62067 19.8179 7.50165 19.7875 7.38817C19.5582 6.52623 19.2152 5.69865 18.7675 4.92723C18.7089 4.82628 18.6276 4.7404 18.5299 4.67644C18.4322 4.61248 18.321 4.57219 18.205 4.55879L15.9813 4.31129C15.8888 4.21379 15.795 4.12004 15.7 4.03004L15.4375 1.80067C15.424 1.68462 15.3836 1.57333 15.3195 1.47567C15.2554 1.37801 15.1693 1.29668 15.0682 1.23817C14.2965 0.791306 13.4689 0.448637 12.6072 0.219105C12.4937 0.188915 12.3746 0.185827 12.2597 0.210091C12.1447 0.234354 12.037 0.28529 11.9454 0.358793L10.2025 1.75004C10.0675 1.75004 9.93254 1.75004 9.79754 1.75004L8.05004 0.354105C7.95829 0.280763 7.8506 0.229997 7.73563 0.205897C7.62067 0.181797 7.50165 0.185037 7.38817 0.215355C6.52637 0.445068 5.69884 0.788058 4.92723 1.23536C4.82628 1.29397 4.7404 1.37535 4.67644 1.473C4.61248 1.57065 4.57219 1.68189 4.55879 1.79786L4.31129 4.02536C4.21379 4.11848 4.12004 4.21223 4.03004 4.30661L1.80067 4.56254C1.68462 4.57605 1.57333 4.61647 1.47567 4.6806C1.37801 4.74473 1.29668 4.83079 1.23817 4.93192C0.791306 5.70363 0.448637 6.53114 0.219105 7.39286C0.188915 7.50641 0.185827 7.62547 0.210091 7.74044C0.234354 7.8554 0.28529 7.96306 0.358793 8.05473L1.75004 9.79754C1.75004 9.93254 1.75004 10.0675 1.75004 10.2025L0.354105 11.95C0.280763 12.0418 0.229997 12.1495 0.205897 12.2645C0.181797 12.3794 0.185037 12.4984 0.215355 12.6119C0.444658 13.4739 0.78767 14.3014 1.23536 15.0729C1.29397 15.1738 1.37535 15.2597 1.473 15.3236C1.57065 15.3876 1.68189 15.4279 1.79786 15.4413L4.02161 15.6888C4.11473 15.7863 4.20848 15.88 4.30286 15.97L4.56254 18.1994C4.57605 18.3155 4.61647 18.4268 4.6806 18.5244C4.74473 18.6221 4.83079 18.7034 4.93192 18.7619C5.70363 19.2088 6.53114 19.5515 7.39286 19.781C7.50641 19.8112 7.62547 19.8143 7.74044 19.79C7.8554 19.7657 7.96306 19.7148 8.05473 19.6413L9.79754 18.25C9.93254 18.2538 10.0675 18.2538 10.2025 18.25L11.95 19.6488C12.0418 19.7221 12.1495 19.7729 12.2645 19.797C12.3794 19.8211 12.4984 19.8179 12.6119 19.7875C13.4739 19.5582 14.3014 19.2152 15.0729 18.7675C15.1738 18.7089 15.2597 18.6276 15.3236 18.5299C15.3876 18.4322 15.4279 18.321 15.4413 18.205L15.6888 15.9813C15.7863 15.8888 15.88 15.795 15.97 15.7L18.1994 15.4375C18.3155 15.424 18.4268 15.3836 18.5244 15.3195C18.6221 15.2554 18.7034 15.1693 18.7619 15.0682C19.2088 14.2965 19.5515 13.4689 19.781 12.6072C19.8112 12.4937 19.8143 12.3746 19.79 12.2597C19.7657 12.1447 19.7148 12.037 19.6413 11.9454L18.25 10.2025ZM16.7407 9.59317C16.7566 9.86419 16.7566 10.1359 16.7407 10.4069C16.7295 10.5925 16.7876 10.7756 16.9038 10.9207L18.2341 12.5829C18.0815 13.068 17.886 13.5386 17.65 13.9891L15.5313 14.2291C15.3468 14.2496 15.1764 14.3378 15.0532 14.4766C14.8727 14.6796 14.6805 14.8718 14.4775 15.0522C14.3387 15.1755 14.2505 15.3458 14.23 15.5304L13.9947 17.6472C13.5443 17.8833 13.0736 18.0788 12.5885 18.2313L10.9254 16.901C10.7923 16.7946 10.627 16.7368 10.4566 16.7369H10.4116C10.1406 16.7529 9.86887 16.7529 9.59786 16.7369C9.41231 16.7257 9.22922 16.7839 9.08411 16.9L7.41723 18.2313C6.93211 18.0786 6.4615 17.8832 6.01098 17.6472L5.77098 15.5313C5.7505 15.3468 5.66231 15.1764 5.52348 15.0532C5.32052 14.8727 5.12832 14.6805 4.94786 14.4775C4.82461 14.3387 4.65424 14.2505 4.46973 14.23L2.35286 13.9938C2.11679 13.5433 1.92132 13.0727 1.76879 12.5875L3.09911 10.9244C3.21527 10.7793 3.2734 10.5962 3.26223 10.4107C3.24629 10.1397 3.24629 9.86793 3.26223 9.59692C3.2734 9.41137 3.21527 9.22829 3.09911 9.08317L1.76879 7.41723C1.92144 6.93211 2.1169 6.4615 2.35286 6.01098L4.46879 5.77098C4.65331 5.7505 4.82367 5.66231 4.94692 5.52348C5.12738 5.32052 5.31958 5.12832 5.52254 4.94786C5.66193 4.82452 5.75048 4.65377 5.77098 4.46879L6.00629 2.35286C6.45677 2.11679 6.92738 1.92132 7.41254 1.76879L9.07567 3.09911C9.22079 3.21527 9.40387 3.2734 9.58942 3.26223C9.86043 3.24629 10.1322 3.24629 10.4032 3.26223C10.5887 3.2734 10.7718 3.21527 10.9169 3.09911L12.5829 1.76879C13.068 1.92144 13.5386 2.1169 13.9891 2.35286L14.2291 4.46879C14.2496 4.65331 14.3378 4.82367 14.4766 4.94692C14.6796 5.12738 14.8718 5.31958 15.0522 5.52254C15.1755 5.66138 15.3458 5.74956 15.5304 5.77004L17.6472 6.00536C17.8833 6.45583 18.0788 6.92644 18.2313 7.41161L16.901 9.07473C16.7837 9.22107 16.7255 9.40604 16.7379 9.59317H16.7407Z" fill="black"/>
</svg>
