<svg width="24" height="24" viewBox="0 0 24 24" fill="none" xmlns="http://www.w3.org/2000/svg">
<path d="M16.5 15C15.9997 14.9998 15.5044 15.1 15.0435 15.2947C14.5827 15.4894 14.1655 15.7746 13.8169 16.1334L9.49498 13.3556C9.83494 12.4838 9.83494 11.5161 9.49498 10.6443L13.8169 7.86651C14.466 8.5315 15.339 8.93175 16.2665 8.98967C17.194 9.04758 18.11 8.75903 18.8369 8.17996C19.5637 7.6009 20.0497 6.77257 20.2005 5.85557C20.3513 4.93857 20.1563 3.99823 19.6532 3.21686C19.1501 2.4355 18.3748 1.86877 17.4776 1.62656C16.5804 1.38435 15.6252 1.48391 14.7972 1.90594C13.9693 2.32797 13.3275 3.0424 12.9964 3.91072C12.6652 4.77904 12.6683 5.73939 13.005 6.60558L8.68311 9.38339C8.16267 8.84908 7.49472 8.48212 6.76464 8.3294C6.03457 8.17668 5.27553 8.24515 4.58457 8.52605C3.8936 8.80695 3.3021 9.28752 2.88568 9.90633C2.46926 10.5251 2.24683 11.2541 2.24683 12C2.24683 12.7458 2.46926 13.4748 2.88568 14.0936C3.3021 14.7124 3.8936 15.193 4.58457 15.4739C5.27553 15.7548 6.03457 15.8232 6.76464 15.6705C7.49472 15.5178 8.16267 15.1508 8.68311 14.6165L13.005 17.3943C12.7155 18.1411 12.6726 18.9609 12.8827 19.7338C13.0928 20.5066 13.5449 21.1919 14.1726 21.6893C14.8004 22.1866 15.5709 22.4699 16.3713 22.4977C17.1718 22.5255 17.9601 22.2962 18.6208 21.8436C19.2815 21.3909 19.78 20.7386 20.0431 19.9822C20.3063 19.2258 20.3204 18.4049 20.0833 17.6399C19.8463 16.8749 19.3705 16.2059 18.7257 15.7308C18.0809 15.2558 17.3009 14.9997 16.5 15ZM16.5 2.99995C16.945 2.99995 17.38 3.13191 17.75 3.37914C18.12 3.62638 18.4084 3.97778 18.5787 4.38891C18.749 4.80005 18.7936 5.25245 18.7067 5.6889C18.6199 6.12536 18.4056 6.52627 18.091 6.84094C17.7763 7.15561 17.3754 7.3699 16.9389 7.45672C16.5025 7.54354 16.0501 7.49898 15.6389 7.32868C15.2278 7.15838 14.8764 6.87 14.6292 6.49998C14.3819 6.12997 14.25 5.69496 14.25 5.24995C14.25 4.65321 14.487 4.08092 14.909 3.65896C15.3309 3.237 15.9032 2.99995 16.5 2.99995ZM5.99998 14.25C5.55497 14.25 5.11996 14.118 4.74995 13.8708C4.37994 13.6235 4.09155 13.2721 3.92125 12.861C3.75096 12.4499 3.7064 11.9975 3.79321 11.561C3.88003 11.1245 4.09432 10.7236 4.40899 10.409C4.72366 10.0943 5.12457 9.88 5.56103 9.79318C5.99749 9.70637 6.44989 9.75093 6.86102 9.92122C7.27215 10.0915 7.62355 10.3799 7.87079 10.7499C8.11802 11.1199 8.24998 11.5549 8.24998 12C8.24998 12.5967 8.01293 13.169 7.59097 13.5909C7.16901 14.0129 6.59672 14.25 5.99998 14.25ZM16.5 21C16.055 21 15.62 20.868 15.2499 20.6208C14.8799 20.3735 14.5915 20.0221 14.4213 19.611C14.251 19.1999 14.2064 18.7475 14.2932 18.311C14.38 17.8745 14.5943 17.4736 14.909 17.159C15.2237 16.8443 15.6246 16.63 16.061 16.5432C16.4975 16.4564 16.9499 16.5009 17.361 16.6712C17.7722 16.8415 18.1236 17.1299 18.3708 17.4999C18.618 17.8699 18.75 18.3049 18.75 18.75C18.75 19.3467 18.5129 19.919 18.091 20.3409C17.669 20.7629 17.0967 21 16.5 21Z" fill="#141414"/>
</svg>
