<svg width="25" height="24" viewBox="0 0 25 24" fill="none" xmlns="http://www.w3.org/2000/svg">
<path d="M22.7528 6.95062L20.3491 15.6019C20.2169 16.0745 19.9343 16.4911 19.544 16.7885C19.1536 17.0859 18.677 17.2479 18.1863 17.25H8.92003C8.42787 17.2498 7.94929 17.0886 7.55728 16.791C7.16526 16.4935 6.88133 16.0758 6.74878 15.6019L3.46003 3.75H1.78003C1.58112 3.75 1.39035 3.67098 1.2497 3.53033C1.10905 3.38968 1.03003 3.19891 1.03003 3C1.03003 2.80109 1.10905 2.61032 1.2497 2.46967C1.39035 2.32902 1.58112 2.25 1.78003 2.25H4.03003C4.194 2.24997 4.35346 2.30367 4.48401 2.40289C4.61455 2.50211 4.70898 2.64138 4.75284 2.79938L5.64159 6H22.03C22.1457 5.99998 22.2597 6.02669 22.3633 6.07805C22.4669 6.1294 22.5572 6.20401 22.6272 6.29605C22.6972 6.38809 22.7449 6.49506 22.7667 6.60861C22.7885 6.72216 22.7838 6.83922 22.7528 6.95062ZM8.53003 18.75C8.23336 18.75 7.94335 18.838 7.69667 19.0028C7.45 19.1676 7.25774 19.4019 7.14421 19.676C7.03068 19.9501 7.00097 20.2517 7.05885 20.5426C7.11673 20.8336 7.25959 21.1009 7.46937 21.3107C7.67915 21.5204 7.94642 21.6633 8.23739 21.7212C8.52837 21.7791 8.82997 21.7494 9.10405 21.6358C9.37814 21.5223 9.61241 21.33 9.77723 21.0834C9.94206 20.8367 10.03 20.5467 10.03 20.25C10.03 19.8522 9.87199 19.4706 9.59069 19.1893C9.30938 18.908 8.92785 18.75 8.53003 18.75ZM18.28 18.75C17.9834 18.75 17.6933 18.838 17.4467 19.0028C17.2 19.1676 17.0077 19.4019 16.8942 19.676C16.7807 19.9501 16.751 20.2517 16.8089 20.5426C16.8667 20.8336 17.0096 21.1009 17.2194 21.3107C17.4291 21.5204 17.6964 21.6633 17.9874 21.7212C18.2784 21.7791 18.58 21.7494 18.8541 21.6358C19.1281 21.5223 19.3624 21.33 19.5272 21.0834C19.6921 20.8367 19.78 20.5467 19.78 20.25C19.78 19.8522 19.622 19.4706 19.3407 19.1893C19.0594 18.908 18.6779 18.75 18.28 18.75Z" fill="black"/>
</svg>
