<svg width="25" height="24" viewBox="0 0 25 24" fill="none" xmlns="http://www.w3.org/2000/svg">
<path d="M11.53 20.25C11.53 20.4489 11.451 20.6397 11.3104 20.7803C11.1697 20.921 10.9789 21 10.78 21H4.78003C4.58112 21 4.39035 20.921 4.2497 20.7803C4.10905 20.6397 4.03003 20.4489 4.03003 20.25V3.75C4.03003 3.55109 4.10905 3.36032 4.2497 3.21967C4.39035 3.07902 4.58112 3 4.78003 3H10.78C10.9789 3 11.1697 3.07902 11.3104 3.21967C11.451 3.36032 11.53 3.55109 11.53 3.75C11.53 3.94891 11.451 4.13968 11.3104 4.28033C11.1697 4.42098 10.9789 4.5 10.78 4.5H5.53003V19.5H10.78C10.9789 19.5 11.1697 19.579 11.3104 19.7197C11.451 19.8603 11.53 20.0511 11.53 20.25ZM21.8107 11.4694L18.0607 7.71937C17.9199 7.57864 17.7291 7.49958 17.53 7.49958C17.331 7.49958 17.1401 7.57864 16.9994 7.71937C16.8587 7.86011 16.7796 8.05098 16.7796 8.25C16.7796 8.44902 16.8587 8.63989 16.9994 8.78063L19.4697 11.25H10.78C10.5811 11.25 10.3904 11.329 10.2497 11.4697C10.109 11.6103 10.03 11.8011 10.03 12C10.03 12.1989 10.109 12.3897 10.2497 12.5303C10.3904 12.671 10.5811 12.75 10.78 12.75H19.4697L16.9994 15.2194C16.8587 15.3601 16.7796 15.551 16.7796 15.75C16.7796 15.949 16.8587 16.1399 16.9994 16.2806C17.1401 16.4214 17.331 16.5004 17.53 16.5004C17.7291 16.5004 17.9199 16.4214 18.0607 16.2806L21.8107 12.5306C21.8804 12.461 21.9357 12.3783 21.9734 12.2872C22.0112 12.1962 22.0306 12.0986 22.0306 12C22.0306 11.9014 22.0112 11.8038 21.9734 11.7128C21.9357 11.6217 21.8804 11.539 21.8107 11.4694Z" fill="black"/>
</svg>
