<svg width="25" height="24" viewBox="0 0 25 24" fill="none" xmlns="http://www.w3.org/2000/svg">
<path d="M12.9441 2.25C11.0157 2.25 9.13067 2.82183 7.52729 3.89317C5.92391 4.96451 4.67423 6.48726 3.93627 8.26884C3.19832 10.0504 3.00523 12.0108 3.38144 13.9021C3.75765 15.7934 4.68624 17.5307 6.04981 18.8943C7.41337 20.2579 9.15065 21.1865 11.042 21.5627C12.9333 21.9389 14.8937 21.7458 16.6753 21.0078C18.4568 20.2699 19.9796 19.0202 21.0509 17.4168C22.1223 15.8134 22.6941 13.9284 22.6941 12C22.6914 9.41498 21.6633 6.93661 19.8354 5.10872C18.0075 3.28084 15.5291 2.25273 12.9441 2.25ZM9.5691 9C9.7916 9 10.0091 9.06598 10.1941 9.1896C10.3791 9.31321 10.5233 9.48891 10.6085 9.69448C10.6936 9.90005 10.7159 10.1262 10.6725 10.3445C10.6291 10.5627 10.5219 10.7632 10.3646 10.9205C10.2073 11.0778 10.0068 11.185 9.78857 11.2284C9.57034 11.2718 9.34414 11.2495 9.13858 11.1644C8.93301 11.0792 8.75731 10.935 8.63369 10.75C8.51008 10.565 8.4441 10.3475 8.4441 10.125C8.4441 9.82663 8.56262 9.54048 8.7736 9.3295C8.98458 9.11853 9.27073 9 9.5691 9ZM17.0691 17.1488C16.897 17.248 16.6925 17.275 16.5006 17.2236C16.3087 17.1723 16.1449 17.0469 16.0453 16.875C15.345 15.6647 14.2444 15 12.9441 15C11.6438 15 10.5432 15.6656 9.84285 16.875C9.79596 16.9646 9.73143 17.0438 9.65313 17.1079C9.57484 17.1719 9.4844 17.2195 9.38725 17.2477C9.2901 17.2758 9.18826 17.2841 9.08785 17.2719C8.98743 17.2597 8.89052 17.2273 8.80295 17.1767C8.71538 17.1261 8.63895 17.0583 8.57826 16.9773C8.51757 16.8964 8.47388 16.804 8.44982 16.7058C8.42575 16.6075 8.42181 16.5054 8.43823 16.4056C8.45464 16.3058 8.49108 16.2104 8.54535 16.125C9.51003 14.4572 11.1132 13.5 12.9441 13.5C14.775 13.5 16.3782 14.4563 17.3428 16.125C17.4421 16.2971 17.4691 16.5016 17.4177 16.6935C17.3664 16.8854 17.241 17.0492 17.0691 17.1488ZM16.3191 11.25C16.0966 11.25 15.8791 11.184 15.6941 11.0604C15.5091 10.9368 15.3649 10.7611 15.2797 10.5555C15.1946 10.35 15.1723 10.1238 15.2157 9.90552C15.2591 9.68729 15.3663 9.48684 15.5236 9.3295C15.6809 9.17217 15.8814 9.06502 16.0996 9.02162C16.3178 8.97821 16.544 9.00049 16.7496 9.08564C16.9552 9.17078 17.1309 9.31498 17.2545 9.49998C17.3781 9.68499 17.4441 9.9025 17.4441 10.125C17.4441 10.4234 17.3256 10.7095 17.1146 10.9205C16.9036 11.1315 16.6175 11.25 16.3191 11.25Z" fill="black"/>
</svg>
