<svg width="25" height="24" viewBox="0 0 25 24" fill="none" xmlns="http://www.w3.org/2000/svg">
<path d="M12.9441 2.25C11.0157 2.25 9.13067 2.82183 7.52729 3.89317C5.92391 4.96451 4.67423 6.48726 3.93627 8.26884C3.19832 10.0504 3.00523 12.0108 3.38144 13.9021C3.75765 15.7934 4.68624 17.5307 6.04981 18.8943C7.41337 20.2579 9.15065 21.1865 11.042 21.5627C12.9333 21.9389 14.8937 21.7458 16.6753 21.0078C18.4568 20.2699 19.9796 19.0202 21.0509 17.4168C22.1223 15.8134 22.6941 13.9284 22.6941 12C22.6909 9.41513 21.6626 6.93705 19.8348 5.10927C18.007 3.28149 15.529 2.25323 12.9441 2.25ZM11.2247 11.4694C11.3655 11.6101 11.4445 11.801 11.4445 12C11.4445 12.199 11.3655 12.3899 11.2247 12.5306C11.084 12.6714 10.8931 12.7504 10.6941 12.7504C10.4951 12.7504 10.3042 12.6714 10.1635 12.5306L9.1941 11.5603L8.22472 12.5306C8.08399 12.6714 7.89312 12.7504 7.6941 12.7504C7.49507 12.7504 7.3042 12.6714 7.16347 12.5306C7.02274 12.3899 6.94368 12.199 6.94368 12C6.94368 11.801 7.02274 11.6101 7.16347 11.4694L8.13378 10.5L7.16347 9.53063C7.02274 9.38989 6.94368 9.19902 6.94368 9C6.94368 8.80098 7.02274 8.61011 7.16347 8.46937C7.3042 8.32864 7.49507 8.24958 7.6941 8.24958C7.89312 8.24958 8.08399 8.32864 8.22472 8.46937L9.1941 9.43969L10.1635 8.46937C10.3042 8.32864 10.4951 8.24958 10.6941 8.24958C10.8931 8.24958 11.084 8.32864 11.2247 8.46937C11.3655 8.61011 11.4445 8.80098 11.4445 9C11.4445 9.19902 11.3655 9.38989 11.2247 9.53063L10.2544 10.5L11.2247 11.4694ZM12.9441 18C12.7216 18 12.5041 17.934 12.3191 17.8104C12.1341 17.6868 11.9899 17.5111 11.9047 17.3055C11.8196 17.1 11.7973 16.8738 11.8407 16.6555C11.8841 16.4373 11.9913 16.2368 12.1486 16.0795C12.3059 15.9222 12.5064 15.815 12.7246 15.7716C12.9428 15.7282 13.169 15.7505 13.3746 15.8356C13.5802 15.9208 13.7559 16.065 13.8795 16.25C14.0031 16.435 14.0691 16.6525 14.0691 16.875C14.0691 17.1734 13.9506 17.4595 13.7396 17.6705C13.5286 17.8815 13.2425 18 12.9441 18ZM18.7247 11.4694C18.7944 11.5391 18.8497 11.6218 18.8874 11.7128C18.9251 11.8039 18.9445 11.9015 18.9445 12C18.9445 12.0985 18.9251 12.1961 18.8874 12.2872C18.8497 12.3782 18.7944 12.4609 18.7247 12.5306C18.655 12.6003 18.5723 12.6556 18.4813 12.6933C18.3902 12.731 18.2926 12.7504 18.1941 12.7504C18.0955 12.7504 17.998 12.731 17.9069 12.6933C17.8159 12.6556 17.7332 12.6003 17.6635 12.5306L16.6941 11.5603L15.7247 12.5306C15.584 12.6714 15.3931 12.7504 15.1941 12.7504C14.9951 12.7504 14.8042 12.6714 14.6635 12.5306C14.5227 12.3899 14.4437 12.199 14.4437 12C14.4437 11.801 14.5227 11.6101 14.6635 11.4694L15.6338 10.5L14.6635 9.53063C14.5227 9.38989 14.4437 9.19902 14.4437 9C14.4437 8.80098 14.5227 8.61011 14.6635 8.46937C14.8042 8.32864 14.9951 8.24958 15.1941 8.24958C15.3931 8.24958 15.584 8.32864 15.7247 8.46937L16.6941 9.43969L17.6635 8.46937C17.7332 8.39969 17.8159 8.34442 17.9069 8.3067C17.998 8.26899 18.0955 8.24958 18.1941 8.24958C18.2926 8.24958 18.3902 8.26899 18.4813 8.3067C18.5723 8.34442 18.655 8.39969 18.7247 8.46937C18.7944 8.53906 18.8497 8.62178 18.8874 8.71283C18.9251 8.80387 18.9445 8.90145 18.9445 9C18.9445 9.09855 18.9251 9.19613 18.8874 9.28717C18.8497 9.37822 18.7944 9.46094 18.7247 9.53063L17.7544 10.5L18.7247 11.4694Z" fill="black"/>
</svg>
