<svg width="18" height="18" viewBox="0 0 18 18" fill="none" xmlns="http://www.w3.org/2000/svg">
<path d="M17.0398 12.4376C17.1224 12.5808 17.1448 12.7509 17.1022 12.9107C17.0596 13.0704 16.9554 13.2068 16.8125 13.2899L9.3125 17.6649C9.21693 17.7206 9.10828 17.75 8.99766 17.75C8.88703 17.75 8.77838 17.7206 8.68281 17.6649L1.18281 13.2899C1.04195 13.2053 0.940092 13.0685 0.899297 12.9093C0.858502 12.7501 0.88205 12.5813 0.964844 12.4393C1.04764 12.2974 1.18301 12.1937 1.34166 12.1508C1.50031 12.108 1.66946 12.1293 1.8125 12.2102L9 16.4016L16.1875 12.2102C16.3308 12.1277 16.5009 12.1052 16.6606 12.1479C16.8204 12.1905 16.9567 12.2946 17.0398 12.4376ZM16.1875 8.46022L9 12.6516L1.8125 8.46022C1.67019 8.38936 1.50623 8.3754 1.35399 8.42117C1.20175 8.46694 1.07267 8.569 0.993026 8.70659C0.913382 8.84417 0.889161 9.00693 0.92529 9.16175C0.961419 9.31656 1.05518 9.45179 1.1875 9.5399L8.6875 13.9149C8.78307 13.9706 8.89172 14 9.00234 14C9.11297 14 9.22162 13.9706 9.31719 13.9149L16.8172 9.5399C16.8892 9.49915 16.9524 9.44449 17.0032 9.3791C17.0539 9.31372 17.0912 9.2389 17.1128 9.159C17.1344 9.0791 17.1399 8.99571 17.129 8.91367C17.1181 8.83162 17.091 8.75256 17.0493 8.68106C17.0076 8.60957 16.9521 8.54706 16.8861 8.49718C16.82 8.4473 16.7447 8.41104 16.6646 8.39049C16.5844 8.36995 16.5009 8.36553 16.419 8.3775C16.3371 8.38947 16.2584 8.41759 16.1875 8.46022ZM0.875 5.25006C0.875249 5.14059 0.904246 5.03311 0.959089 4.93837C1.01393 4.84363 1.0927 4.76495 1.1875 4.71022L8.6875 0.335216C8.78307 0.279487 8.89172 0.250122 9.00234 0.250122C9.11297 0.250122 9.22162 0.279487 9.31719 0.335216L16.8172 4.71022C16.9115 4.76526 16.9898 4.84407 17.0442 4.93879C17.0986 5.03351 17.1272 5.14083 17.1272 5.25006C17.1272 5.35929 17.0986 5.46661 17.0442 5.56133C16.9898 5.65605 16.9115 5.73486 16.8172 5.7899L9.31719 10.1649C9.22162 10.2206 9.11297 10.25 9.00234 10.25C8.89172 10.25 8.78307 10.2206 8.6875 10.1649L1.1875 5.7899C1.0927 5.73517 1.01393 5.65649 0.959089 5.56175C0.904246 5.46701 0.875249 5.35953 0.875 5.25006ZM2.74063 5.25006L9 8.90162L15.2594 5.25006L9 1.5985L2.74063 5.25006Z" fill="#141414"/>
</svg>
