<svg width="20" height="22" viewBox="0 0 20 22" fill="none" xmlns="http://www.w3.org/2000/svg">
<path d="M18.625 14.8522L9.99999 19.8819L1.37499 14.8522C1.20422 14.7672 1.00746 14.7505 0.824775 14.8054C0.642086 14.8603 0.487192 14.9828 0.39162 15.1479C0.296048 15.313 0.266982 15.5083 0.310337 15.6941C0.353692 15.8798 0.46621 16.0421 0.624989 16.1479L9.62499 21.3979C9.73967 21.4647 9.87005 21.5 10.0028 21.5C10.1356 21.5 10.2659 21.4647 10.3806 21.3979L19.3806 16.1479C19.4671 16.099 19.5429 16.0334 19.6038 15.9549C19.6647 15.8764 19.7094 15.7867 19.7353 15.6908C19.7612 15.5949 19.7678 15.4948 19.7548 15.3964C19.7417 15.2979 19.7092 15.203 19.6592 15.1172C19.6091 15.0315 19.5425 14.9565 19.4633 14.8966C19.384 14.8367 19.2937 14.7932 19.1975 14.7686C19.1013 14.7439 19.0011 14.7386 18.9028 14.753C18.8046 14.7673 18.7101 14.8011 18.625 14.8522Z" fill="black"/>
<path d="M18.625 10.3522L9.99999 15.3819L1.37499 10.3522C1.20422 10.2672 1.00746 10.2505 0.824775 10.3054C0.642086 10.3603 0.487192 10.4828 0.39162 10.6479C0.296048 10.813 0.266982 11.0083 0.310337 11.1941C0.353692 11.3798 0.46621 11.5421 0.624989 11.6479L9.62499 16.8979C9.73967 16.9647 9.87005 17 10.0028 17C10.1356 17 10.2659 16.9647 10.3806 16.8979L19.3806 11.6479C19.4671 11.599 19.5429 11.5334 19.6038 11.4549C19.6647 11.3764 19.7094 11.2867 19.7353 11.1908C19.7612 11.0949 19.7678 10.9948 19.7548 10.8964C19.7417 10.7979 19.7092 10.703 19.6592 10.6172C19.6091 10.5315 19.5425 10.4565 19.4633 10.3966C19.384 10.3367 19.2937 10.2932 19.1975 10.2686C19.1013 10.2439 19.0011 10.2386 18.9028 10.253C18.8046 10.2673 18.7101 10.3011 18.625 10.3522Z" fill="black"/>
<path d="M0.624989 7.14786L9.62499 12.3979C9.73967 12.4647 9.87005 12.5 10.0028 12.5C10.1356 12.5 10.2659 12.4647 10.3806 12.3979L19.3806 7.14786C19.4938 7.08181 19.5878 6.98724 19.653 6.87357C19.7183 6.75991 19.7527 6.63112 19.7527 6.50005C19.7527 6.36897 19.7183 6.24018 19.653 6.12652C19.5878 6.01286 19.4938 5.91829 19.3806 5.85223L10.3806 0.602235C10.2659 0.53536 10.1356 0.500122 10.0028 0.500122C9.87005 0.500122 9.73967 0.53536 9.62499 0.602235L0.624989 5.85223C0.511772 5.91829 0.417843 6.01286 0.352562 6.12652C0.287282 6.24018 0.25293 6.36897 0.25293 6.50005C0.25293 6.63112 0.287282 6.75991 0.352562 6.87357C0.417843 6.98724 0.511772 7.08181 0.624989 7.14786Z" fill="black"/>
</svg>
