<svg width="25" height="24" viewBox="0 0 25 24" fill="none" xmlns="http://www.w3.org/2000/svg">
<path d="M22.7031 9.11812C22.6093 8.82986 22.4323 8.5758 22.1944 8.38795C21.9565 8.2001 21.6684 8.08686 21.3662 8.06249L15.835 7.61624L13.6993 2.45155C13.5838 2.17013 13.3873 1.92941 13.1346 1.76C12.882 1.59058 12.5846 1.50012 12.2804 1.50012C11.9762 1.50012 11.6789 1.59058 11.4263 1.76C11.1736 1.92941 10.977 2.17013 10.8615 2.45155L8.72778 7.61531L3.19372 8.06249C2.89107 8.08809 2.60271 8.20243 2.36476 8.39119C2.12681 8.57994 1.94985 8.83472 1.85606 9.12361C1.76227 9.41249 1.75581 9.72263 1.8375 10.0152C1.91919 10.3077 2.08539 10.5696 2.31528 10.7681L6.53403 14.4084L5.24872 19.8516C5.17684 20.1473 5.19444 20.4577 5.29929 20.7434C5.40414 21.0291 5.59151 21.2771 5.83762 21.4562C6.08373 21.6352 6.37748 21.737 6.68157 21.7488C6.98567 21.7605 7.2864 21.6817 7.5456 21.5222L12.28 18.6084L17.0172 21.5222C17.2764 21.6798 17.5766 21.7571 17.8797 21.7445C18.1829 21.7318 18.4755 21.6298 18.7208 21.4512C18.9661 21.2726 19.153 21.0254 19.2581 20.7407C19.3631 20.4561 19.3816 20.1467 19.3112 19.8516L18.0212 14.4075L22.24 10.7672C22.4717 10.569 22.6394 10.3065 22.7219 10.013C22.8043 9.71939 22.7978 9.40796 22.7031 9.11812ZM21.265 9.63093L16.6993 13.5684C16.5952 13.6582 16.5178 13.7748 16.4754 13.9056C16.4331 14.0364 16.4276 14.1763 16.4593 14.31L17.8543 20.1975C17.858 20.2056 17.8583 20.2148 17.8553 20.2232C17.8524 20.2315 17.8463 20.2385 17.8384 20.2425C17.8215 20.2556 17.8168 20.2528 17.8028 20.2425L12.6728 17.0878C12.5546 17.0152 12.4187 16.9767 12.28 16.9767C12.1413 16.9767 12.0053 17.0152 11.8872 17.0878L6.75716 20.2444C6.7431 20.2528 6.73935 20.2556 6.72153 20.2444C6.71362 20.2403 6.70756 20.2334 6.70459 20.225C6.70163 20.2167 6.70199 20.2075 6.7056 20.1994L8.10059 14.3119C8.13239 14.1781 8.12682 14.0382 8.08449 13.9075C8.04217 13.7767 7.96471 13.66 7.8606 13.5703L3.29497 9.6328C3.28372 9.62343 3.27341 9.61499 3.28278 9.58593C3.29216 9.55687 3.29966 9.56062 3.31372 9.55874L9.30622 9.07499C9.44367 9.0632 9.5752 9.01373 9.68635 8.93203C9.7975 8.85032 9.88396 8.73954 9.93622 8.61187L12.2443 3.02343C12.2518 3.00749 12.2547 2.99999 12.2772 2.99999C12.2997 2.99999 12.3025 3.00749 12.31 3.02343L14.6237 8.61187C14.6765 8.73958 14.7635 8.85025 14.8751 8.93164C14.9868 9.01303 15.1188 9.06199 15.2565 9.07312L21.249 9.55687C21.2631 9.55687 21.2715 9.55687 21.28 9.58405C21.2884 9.61124 21.28 9.62156 21.265 9.63093Z" fill="black"/>
</svg>
