<svg width="24" height="25" viewBox="0 0 24 25" fill="none" xmlns="http://www.w3.org/2000/svg">
<path d="M24 13.32C24 13.5189 23.921 13.7097 23.7803 13.8504C23.6397 13.991 23.4489 14.07 23.25 14.07H21.75V15.57C21.75 15.7689 21.671 15.9597 21.5303 16.1004C21.3897 16.241 21.1989 16.32 21 16.32C20.8011 16.32 20.6103 16.241 20.4697 16.1004C20.329 15.9597 20.25 15.7689 20.25 15.57V14.07H18.75C18.5511 14.07 18.3603 13.991 18.2197 13.8504C18.079 13.7097 18 13.5189 18 13.32C18 13.1211 18.079 12.9304 18.2197 12.7897C18.3603 12.6491 18.5511 12.57 18.75 12.57H20.25V11.07C20.25 10.8711 20.329 10.6804 20.4697 10.5397C20.6103 10.3991 20.8011 10.32 21 10.32C21.1989 10.32 21.3897 10.3991 21.5303 10.5397C21.671 10.6804 21.75 10.8711 21.75 11.07V12.57H23.25C23.4489 12.57 23.6397 12.6491 23.7803 12.7897C23.921 12.9304 24 13.1211 24 13.32ZM18.5747 18.8372C18.7027 18.9896 18.765 19.1867 18.7478 19.385C18.7305 19.5833 18.6352 19.7667 18.4828 19.8947C18.3304 20.0228 18.1334 20.085 17.935 20.0678C17.7367 20.0506 17.5534 19.9553 17.4253 19.8028C15.5391 17.5566 12.9459 16.32 10.125 16.32C7.30406 16.32 4.71094 17.5566 2.82469 19.8028C2.69664 19.9551 2.51334 20.0503 2.3151 20.0675C2.11687 20.0846 1.91995 20.0223 1.76766 19.8943C1.61536 19.7662 1.52018 19.5829 1.50304 19.3847C1.48589 19.1864 1.5482 18.9895 1.67625 18.8372C3.07688 17.1703 4.81875 15.9863 6.75469 15.3525C5.57897 14.6203 4.67374 13.525 4.17594 12.2324C3.67814 10.9398 3.61486 9.52032 3.99567 8.18859C4.37649 6.85685 5.18067 5.68537 6.28657 4.85139C7.39246 4.0174 8.73989 3.56628 10.125 3.56628C11.5101 3.56628 12.8575 4.0174 13.9634 4.85139C15.0693 5.68537 15.8735 6.85685 16.2543 8.18859C16.6351 9.52032 16.5719 10.9398 16.0741 12.2324C15.5763 13.525 14.671 14.6203 13.4953 15.3525C15.4312 15.9863 17.1731 17.1703 18.5747 18.8372ZM10.125 14.82C11.0892 14.82 12.0317 14.5341 12.8334 13.9984C13.6351 13.4628 14.2599 12.7014 14.6289 11.8106C14.9979 10.9198 15.0944 9.93963 14.9063 8.99397C14.7182 8.04831 14.2539 7.17967 13.5721 6.49789C12.8904 5.81611 12.0217 5.35181 11.0761 5.16371C10.1304 4.9756 9.15021 5.07214 8.25942 5.44112C7.36863 5.8101 6.60726 6.43494 6.07159 7.23663C5.53591 8.03832 5.25 8.98085 5.25 9.94503C5.25149 11.2375 5.76558 12.4766 6.6795 13.3905C7.59342 14.3045 8.83253 14.8185 10.125 14.82Z" fill="black"/>
</svg>
