<svg width="25" height="24" viewBox="0 0 25 24" fill="none" xmlns="http://www.w3.org/2000/svg">
<path d="M12.28 2.25C10.3517 2.25 8.4666 2.82183 6.86322 3.89317C5.25984 4.96451 4.01016 6.48726 3.27221 8.26884C2.53425 10.0504 2.34117 12.0108 2.71738 13.9021C3.09358 15.7934 4.02218 17.5307 5.38574 18.8943C6.7493 20.2579 8.48659 21.1865 10.3779 21.5627C12.2692 21.9389 14.2296 21.7458 16.0112 21.0078C17.7928 20.2699 19.3155 19.0202 20.3869 17.4168C21.4582 15.8134 22.03 13.9284 22.03 12C22.0273 9.41498 20.9992 6.93661 19.1713 5.10872C17.3434 3.28084 14.8651 2.25273 12.28 2.25ZM7.22503 18.5156C7.7676 17.6671 8.51504 16.9688 9.39846 16.4851C10.2819 16.0013 11.2729 15.7478 12.28 15.7478C13.2872 15.7478 14.2782 16.0013 15.1616 16.4851C16.045 16.9688 16.7925 17.6671 17.335 18.5156C15.8897 19.6397 14.111 20.2499 12.28 20.2499C10.4491 20.2499 8.67034 19.6397 7.22503 18.5156ZM9.28003 11.25C9.28003 10.6567 9.45598 10.0766 9.78562 9.58329C10.1153 9.08994 10.5838 8.70542 11.132 8.47836C11.6802 8.2513 12.2834 8.19189 12.8653 8.30764C13.4472 8.4234 13.9818 8.70912 14.4014 9.12868C14.8209 9.54824 15.1066 10.0828 15.2224 10.6647C15.3381 11.2467 15.2787 11.8499 15.0517 12.3981C14.8246 12.9462 14.4401 13.4148 13.9467 13.7444C13.4534 14.0741 12.8734 14.25 12.28 14.25C11.4844 14.25 10.7213 13.9339 10.1587 13.3713C9.5961 12.8087 9.28003 12.0456 9.28003 11.25ZM18.445 17.4759C17.6086 16.2638 16.4324 15.3261 15.0644 14.7806C15.7992 14.2019 16.3354 13.4085 16.5985 12.5108C16.8615 11.6132 16.8383 10.6559 16.532 9.77207C16.2257 8.88825 15.6516 8.12183 14.8896 7.5794C14.1276 7.03696 13.2154 6.74548 12.28 6.74548C11.3446 6.74548 10.4325 7.03696 9.67047 7.5794C8.90842 8.12183 8.33435 8.88825 8.02808 9.77207C7.72182 10.6559 7.69858 11.6132 7.9616 12.5108C8.22462 13.4085 8.76083 14.2019 9.49566 14.7806C8.12768 15.3261 6.9515 16.2638 6.11503 17.4759C5.05807 16.2873 4.36723 14.8185 4.1257 13.2464C3.88418 11.6743 4.10226 10.0658 4.75371 8.61478C5.40515 7.16372 6.46216 5.93192 7.79747 5.06769C9.13279 4.20346 10.6895 3.74367 12.28 3.74367C13.8706 3.74367 15.4273 4.20346 16.7626 5.06769C18.0979 5.93192 19.1549 7.16372 19.8064 8.61478C20.4578 10.0658 20.6759 11.6743 20.4344 13.2464C20.1928 14.8185 19.502 16.2873 18.445 17.4759Z" fill="black"/>
</svg>
