<svg width="24" height="16" viewBox="0 0 24 16" fill="none" xmlns="http://www.w3.org/2000/svg">
<path d="M15.4191 14.3403C15.4929 14.4534 15.5347 14.5844 15.5402 14.7194C15.5457 14.8544 15.5147 14.9884 15.4503 15.1072C15.386 15.226 15.2907 15.3252 15.1747 15.3943C15.0586 15.4634 14.926 15.4999 14.7909 15.5H0.959061C0.823963 15.4999 0.691378 15.4634 0.575314 15.3943C0.459249 15.3252 0.364016 15.226 0.299674 15.1072C0.235332 14.9884 0.204272 14.8544 0.209775 14.7194C0.215277 14.5844 0.257139 14.4534 0.330936 14.3403C1.38666 12.7152 2.93952 11.4751 4.75781 10.805C3.75262 10.1358 2.98947 9.16085 2.58121 8.02439C2.17296 6.88792 2.14127 5.65024 2.49083 4.49437C2.8404 3.3385 3.55266 2.32581 4.52228 1.60605C5.49191 0.886294 6.66743 0.497681 7.875 0.497681C9.08257 0.497681 10.2581 0.886294 11.2277 1.60605C12.1973 2.32581 12.9096 3.3385 13.2592 4.49437C13.6087 5.65024 13.577 6.88792 13.1688 8.02439C12.7605 9.16085 11.9974 10.1358 10.9922 10.805C12.8105 11.4751 14.3633 12.7152 15.4191 14.3403ZM23.6606 14.3262C22.6046 12.708 21.0552 11.4732 19.2422 10.805C20.4289 10.0056 21.2663 8.78409 21.5841 7.38904C21.9019 5.99398 21.6761 4.53026 20.9528 3.2958C20.2294 2.06134 19.0628 1.14894 17.6904 0.744303C16.318 0.339669 14.843 0.473222 13.5656 1.11778C13.5168 1.143 13.4741 1.17865 13.4405 1.2222C13.407 1.26576 13.3835 1.31616 13.3716 1.36983C13.3597 1.4235 13.3597 1.47912 13.3717 1.53277C13.3837 1.58642 13.4073 1.63678 13.4409 1.68028C14.3908 2.8651 14.9363 4.32294 14.9975 5.84026C15.0588 7.35758 14.6325 8.85464 13.7812 10.1122C13.7262 10.1943 13.7059 10.2949 13.7247 10.392C13.7435 10.4891 13.7999 10.5749 13.8816 10.6306C14.9915 11.4052 15.9416 12.3866 16.68 13.5209C16.9778 13.977 17.0994 14.5258 17.0222 15.065C17.0135 15.1186 17.0166 15.1735 17.0312 15.2258C17.0458 15.2781 17.0716 15.3267 17.1068 15.368C17.142 15.4094 17.1858 15.4426 17.2351 15.4654C17.2845 15.4882 17.3382 15.5 17.3925 15.5H23.0456C23.2108 15.5 23.3713 15.4456 23.5024 15.345C23.6334 15.2445 23.7276 15.1036 23.7703 14.944C23.7964 14.8391 23.8001 14.7299 23.7812 14.6234C23.7623 14.517 23.7212 14.4157 23.6606 14.3262Z" fill="black"/>
</svg>
