<svg width="24" height="16" viewBox="0 0 24 16" fill="none" xmlns="http://www.w3.org/2000/svg">
<path d="M10.9922 10.805C11.9974 10.1358 12.7606 9.16085 13.1688 8.02439C13.5771 6.88792 13.6088 5.65024 13.2592 4.49437C12.9096 3.3385 12.1974 2.32581 11.2278 1.60605C10.2581 0.886294 9.08262 0.497681 7.87505 0.497681C6.66747 0.497681 5.49196 0.886294 4.52233 1.60605C3.55271 2.32581 2.84045 3.3385 2.49088 4.49437C2.14132 5.65024 2.17301 6.88792 2.58126 8.02439C2.98952 9.16085 3.75267 10.1358 4.75786 10.805C2.93957 11.4751 1.38671 12.7152 0.330984 14.3403C0.275499 14.4227 0.236959 14.5154 0.217604 14.6129C0.198249 14.7104 0.198466 14.8108 0.218241 14.9082C0.238017 15.0056 0.276957 15.0981 0.332798 15.1803C0.388639 15.2625 0.460266 15.3328 0.543518 15.3871C0.626769 15.4414 0.719983 15.4787 0.817742 15.4966C0.9155 15.5146 1.01585 15.5129 1.11297 15.4917C1.21008 15.4706 1.30202 15.4303 1.38344 15.3733C1.46486 15.3163 1.53413 15.2437 1.58723 15.1597C2.26822 14.1123 3.20007 13.2516 4.29814 12.6558C5.39622 12.0599 6.62574 11.7479 7.87505 11.7479C9.12436 11.7479 10.3539 12.0599 11.452 12.6558C12.55 13.2516 13.4819 14.1123 14.1629 15.1597C14.2729 15.3231 14.4428 15.4368 14.6359 15.476C14.829 15.5152 15.0298 15.4768 15.1949 15.3692C15.3599 15.2615 15.476 15.0932 15.5179 14.9007C15.5599 14.7082 15.5244 14.5068 15.4191 14.3403C14.3634 12.7152 12.8105 11.4751 10.9922 10.805ZM3.75005 6.12496C3.75005 5.30911 3.99197 4.51159 4.44523 3.83324C4.8985 3.15488 5.54273 2.62617 6.29648 2.31396C7.05022 2.00175 7.87962 1.92006 8.67979 2.07922C9.47997 2.23839 10.215 2.63126 10.7919 3.20815C11.3688 3.78504 11.7616 4.52004 11.9208 5.32022C12.0799 6.12039 11.9983 6.94979 11.686 7.70353C11.3738 8.45728 10.8451 9.10151 10.1668 9.55477C9.48842 10.008 8.69089 10.25 7.87505 10.25C6.78141 10.2487 5.73292 9.81373 4.9596 9.04041C4.18628 8.26709 3.75129 7.2186 3.75005 6.12496ZM23.4507 15.3781C23.2841 15.4867 23.0812 15.5247 22.8865 15.4838C22.6919 15.4428 22.5215 15.3262 22.4129 15.1597C21.7327 14.1116 20.801 13.2506 19.7027 12.655C18.6044 12.0594 17.3744 11.7483 16.125 11.75C15.9261 11.75 15.7354 11.6709 15.5947 11.5303C15.4541 11.3896 15.375 11.1989 15.375 11C15.375 10.8011 15.4541 10.6103 15.5947 10.4696C15.7354 10.329 15.9261 10.25 16.125 10.25C16.7325 10.2494 17.3324 10.1147 17.8817 9.85538C18.4311 9.59611 18.9164 9.2187 19.303 8.75013C19.6896 8.28155 19.9679 7.73337 20.1181 7.14475C20.2683 6.55614 20.2866 5.94162 20.1718 5.3451C20.0569 4.74859 19.8117 4.1848 19.4537 3.69402C19.0958 3.20325 18.6338 2.7976 18.1008 2.50606C17.5679 2.21452 16.9771 2.04429 16.3708 2.00752C15.7644 1.97076 15.1574 2.06838 14.5932 2.2934C14.5012 2.33317 14.4021 2.3541 14.3019 2.35495C14.2017 2.35579 14.1023 2.33654 14.0096 2.29833C13.917 2.26012 13.8329 2.20373 13.7624 2.13248C13.6919 2.06123 13.6364 1.97658 13.5992 1.88352C13.562 1.79046 13.5438 1.69088 13.5457 1.59067C13.5476 1.49046 13.5696 1.39165 13.6103 1.30007C13.6511 1.2085 13.7098 1.12602 13.7829 1.05752C13.8561 0.98901 13.9422 0.935862 14.0363 0.901213C15.3277 0.386198 16.764 0.367665 18.0682 0.849188C19.3725 1.33071 20.4522 2.27817 21.099 3.50879C21.7459 4.73941 21.9141 6.16599 21.5713 7.51332C21.2284 8.86066 20.3987 10.0333 19.2422 10.805C21.0605 11.4751 22.6134 12.7152 23.6691 14.3403C23.7777 14.5069 23.8158 14.7098 23.7748 14.9044C23.7338 15.099 23.6172 15.2694 23.4507 15.3781Z" fill="black"/>
</svg>
