<svg width="25" height="24" viewBox="0 0 25 24" fill="none" xmlns="http://www.w3.org/2000/svg">
<path d="M16.405 11.25C16.405 12.0658 16.1631 12.8634 15.7098 13.5417C15.2566 14.2201 14.6123 14.7488 13.8586 15.061C13.1049 15.3732 12.2755 15.4549 11.4753 15.2957C10.6751 15.1366 9.94011 14.7437 9.36322 14.1668C8.78633 13.5899 8.39346 12.8549 8.23429 12.0547C8.07513 11.2546 8.15682 10.4252 8.46903 9.67143C8.78124 8.91769 9.30995 8.27345 9.98831 7.82019C10.6667 7.36693 11.4642 7.125 12.28 7.125C13.3737 7.12624 14.4222 7.56124 15.1955 8.33455C15.9688 9.10787 16.4038 10.1564 16.405 11.25ZM22.03 12C22.03 13.9284 21.4582 15.8134 20.3869 17.4168C19.3155 19.0202 17.7928 20.2699 16.0112 21.0078C14.2296 21.7458 12.2692 21.9389 10.3779 21.5627C8.48659 21.1865 6.7493 20.2579 5.38574 18.8943C4.02218 17.5307 3.09358 15.7934 2.71738 13.9021C2.34117 12.0108 2.53425 10.0504 3.27221 8.26884C4.01016 6.48726 5.25984 4.96451 6.86322 3.89317C8.4666 2.82183 10.3517 2.25 12.28 2.25C14.8651 2.25273 17.3434 3.28084 19.1713 5.10872C20.9992 6.93661 22.0273 9.41498 22.03 12ZM20.53 12C20.5288 10.8896 20.3037 9.79077 19.8681 8.76934C19.4325 7.7479 18.7954 6.82481 17.9949 6.05525C17.1943 5.2857 16.2468 4.68549 15.209 4.29053C14.1712 3.89556 13.0643 3.71395 11.9547 3.75656C7.5391 3.92719 4.01785 7.605 4.03003 12.0234C4.03427 14.0349 4.77612 15.9749 6.11503 17.4759C6.66031 16.6851 7.35295 16.0068 8.15503 15.4781C8.22342 15.433 8.30472 15.4114 8.38649 15.4169C8.46827 15.4223 8.54602 15.4543 8.60785 15.5081C9.62708 16.3897 10.9296 16.8749 12.2772 16.8749C13.6248 16.8749 14.9274 16.3897 15.9466 15.5081C16.0084 15.4543 16.0862 15.4223 16.1679 15.4169C16.2497 15.4114 16.331 15.433 16.3994 15.4781C17.2025 16.0065 17.8961 16.6848 18.4422 17.4759C19.7878 15.9694 20.531 14.0199 20.53 12Z" fill="black"/>
</svg>
