<svg width="17" height="15" viewBox="0 0 17 15" fill="none" xmlns="http://www.w3.org/2000/svg">
<path d="M14.875 3H2.375C2.20924 3 2.05027 2.93415 1.93306 2.81694C1.81585 2.69973 1.75 2.54076 1.75 2.375C1.75 2.20924 1.81585 2.05027 1.93306 1.93306C2.05027 1.81585 2.20924 1.75 2.375 1.75H13C13.1658 1.75 13.3247 1.68415 13.4419 1.56694C13.5592 1.44973 13.625 1.29076 13.625 1.125C13.625 0.95924 13.5592 0.800269 13.4419 0.683058C13.3247 0.565848 13.1658 0.5 13 0.5H2.375C1.87772 0.5 1.40081 0.697544 1.04917 1.04917C0.697544 1.40081 0.5 1.87772 0.5 2.375V12.375C0.5 12.8723 0.697544 13.3492 1.04917 13.7008C1.40081 14.0525 1.87772 14.25 2.375 14.25H14.875C15.2065 14.25 15.5245 14.1183 15.7589 13.8839C15.9933 13.6495 16.125 13.3315 16.125 13V4.25C16.125 3.91848 15.9933 3.60054 15.7589 3.36612C15.5245 3.1317 15.2065 3 14.875 3ZM14.875 13H2.375C2.20924 13 2.05027 12.9342 1.93306 12.8169C1.81585 12.6997 1.75 12.5408 1.75 12.375V4.14297C1.95068 4.21411 2.16208 4.25031 2.375 4.25H14.875V13ZM11.125 8.3125C11.125 8.12708 11.18 7.94582 11.283 7.79165C11.386 7.63748 11.5324 7.51732 11.7037 7.44636C11.875 7.37541 12.0635 7.35684 12.2454 7.39301C12.4273 7.42919 12.5943 7.51848 12.7254 7.64959C12.8565 7.7807 12.9458 7.94775 12.982 8.1296C13.0182 8.31146 12.9996 8.49996 12.9286 8.67126C12.8577 8.84257 12.7375 8.98899 12.5833 9.092C12.4292 9.19502 12.2479 9.25 12.0625 9.25C11.8139 9.25 11.5754 9.15123 11.3996 8.97541C11.2238 8.7996 11.125 8.56114 11.125 8.3125Z" fill="#141414"/>
</svg>
