<svg width="25" height="24" viewBox="0 0 25 24" fill="none" xmlns="http://www.w3.org/2000/svg">
<path d="M12.9441 2.25C11.0157 2.25 9.13067 2.82183 7.52729 3.89317C5.92391 4.96451 4.67423 6.48726 3.93627 8.26884C3.19832 10.0504 3.00523 12.0108 3.38144 13.9021C3.75765 15.7934 4.68624 17.5307 6.04981 18.8943C7.41337 20.2579 9.15065 21.1865 11.042 21.5627C12.9333 21.9389 14.8937 21.7458 16.6753 21.0078C18.4568 20.2699 19.9796 19.0202 21.0509 17.4168C22.1223 15.8134 22.6941 13.9284 22.6941 12C22.6914 9.41498 21.6633 6.93661 19.8354 5.10872C18.0075 3.28084 15.5291 2.25273 12.9441 2.25ZM12.1941 7.5C12.1941 7.30109 12.2731 7.11032 12.4138 6.96967C12.5544 6.82902 12.7452 6.75 12.9441 6.75C13.143 6.75 13.3338 6.82902 13.4744 6.96967C13.6151 7.11032 13.6941 7.30109 13.6941 7.5V12.75C13.6941 12.9489 13.6151 13.1397 13.4744 13.2803C13.3338 13.421 13.143 13.5 12.9441 13.5C12.7452 13.5 12.5544 13.421 12.4138 13.2803C12.2731 13.1397 12.1941 12.9489 12.1941 12.75V7.5ZM12.9441 17.25C12.7216 17.25 12.5041 17.184 12.3191 17.0604C12.1341 16.9368 11.9899 16.7611 11.9047 16.5555C11.8196 16.35 11.7973 16.1238 11.8407 15.9055C11.8841 15.6873 11.9913 15.4868 12.1486 15.3295C12.3059 15.1722 12.5064 15.065 12.7246 15.0216C12.9428 14.9782 13.169 15.0005 13.3746 15.0856C13.5802 15.1708 13.7559 15.315 13.8795 15.5C14.0031 15.685 14.0691 15.9025 14.0691 16.125C14.0691 16.4234 13.9506 16.7095 13.7396 16.9205C13.5286 17.1315 13.2425 17.25 12.9441 17.25Z" fill="black"/>
</svg>
